<?xml version="1.0" encoding="utf-8"?><!-- Generator: Iparigrafika Gear Generator by Abel Vincze http://geargenerator.com/ --><svg version="1.2" class="svggear" xmlns="http://www.w3.org/2000/svg" xmlns:xlink="http://www.w3.org/1999/xlink" x="0px" y="0px" width="710px" height="710px" viewBox="-355 -355 710 710" overflow="scroll" xml:space="preserve"><polygon id="gearpoly1" data-id="1" class="gear" fill="#ddd" stroke="#444" stroke-width="1" stroke-miterlimit="10" points="331.7367,-4.7558 331.9865,-7.3727 332.6095,-7.6521 333.2389,-7.9383 333.8745,-8.2315 334.5163,-8.5316 335.1643,-8.8388 335.8184,-9.1531 336.4784,-9.4746 337.1445,-9.8034 337.8165,-10.1395 338.4943,-10.4831 339.1779,-10.8342 339.8673,-11.1928 340.5623,-11.5591 341.263,-11.933 341.9692,-12.3148 342.6808,-12.7044 343.3979,-13.1019 344.1204,-13.5074 344.8481,-13.9209 345.5811,-14.3425 346.3193,-14.7724 347.0625,-15.2104 347.8108,-15.6568 348.564,-16.1116 349.3222,-16.5748 350.0851,-17.0465 350.8528,-17.5268 351.6252,-18.0157 352.4023,-18.5134 353.1838,-19.0197 353.6285,-19.5161 353.3303,-24.3255 352.8277,-24.7631 351.9895,-25.1691 351.157,-25.5669 350.3301,-25.9566 349.5089,-26.3384 348.6935,-26.7122 347.8839,-27.0782 347.0803,-27.4364 346.2826,-27.7869 345.4909,-28.1298 344.7053,-28.4652 343.9259,-28.793 343.1526,-29.1135 342.3856,-29.4266 341.6248,-29.7324 340.8705,-30.0311 340.1225,-30.3227 339.3811,-30.6072 338.6461,-30.8848 337.9177,-31.1555 337.196,-31.4194 336.4809,-31.6766 335.7725,-31.9271 335.0709,-32.1711 334.3762,-32.4086 333.6883,-32.6397 333.0073,-32.8645 332.3334,-33.083 331.6664,-33.2954 331.0065,-33.5016 330.3537,-33.7019 329.7825,-36.2679 329.7825,-36.2679 329.7824,-38.8967 330.3761,-39.234 330.9754,-39.5788 331.5802,-39.931 332.1906,-40.2908 332.8065,-40.6581 333.4277,-41.0332 334.0542,-41.416 334.686,-41.8066 335.323,-42.2051 335.9651,-42.6116 336.6123,-43.026 337.2644,-43.4486 337.9215,-43.8792 338.5834,-44.3181 339.2501,-44.7653 339.9215,-45.2207 340.5976,-45.6846 341.2782,-46.1569 341.9634,-46.6377 342.653,-47.1272 343.3469,-47.6252 344.0451,-48.1319 344.7476,-48.6474 345.4542,-49.1717 346.1649,-49.7049 346.8795,-50.247 347.5981,-50.7981 348.3205,-51.3583 349.0468,-51.9275 349.7766,-52.5059 350.1722,-53.0423 349.4181,-57.8015 348.8761,-58.1894 348.0032,-58.5138 347.1366,-58.8307 346.2764,-59.1401 345.4227,-59.4421 344.5754,-59.7367 343.7347,-60.0241 342.9007,-60.3043 342.0733,-60.5774 341.2526,-60.8435 340.4387,-61.1026 339.6316,-61.3549 338.8314,-61.6004 338.038,-61.8391 337.2517,-62.0713 336.4724,-62.2969 335.7001,-62.5161 334.9349,-62.7288 334.1769,-62.9353 333.4261,-63.1355 332.6825,-63.3296 331.9462,-63.5177 331.2172,-63.6998 330.4956,-63.876 329.7815,-64.0464 329.0747,-64.211 328.3755,-64.37 327.6838,-64.5235 326.9996,-64.6715 326.3231,-64.8141 325.6542,-64.9514 324.8418,-67.4515 324.8418,-67.4515 324.5917,-70.0684 325.1507,-70.4606 325.7145,-70.8608 326.2831,-71.2689 326.8566,-71.685 327.4347,-72.1093 328.0174,-72.5417 328.6048,-72.9823 329.1966,-73.4313 329.7928,-73.8885 330.3933,-74.3541 330.9982,-74.8282 331.6072,-75.3108 332.2203,-75.802 332.8376,-76.3018 333.4587,-76.8103 334.0838,-77.3276 334.7127,-77.8536 335.3454,-78.3885 335.9817,-78.9323 336.6217,-79.485 337.2651,-80.0467 337.9121,-80.6176 338.5623,-81.1975 339.2159,-81.7866 339.8727,-82.3849 340.5326,-82.9925 341.1955,-83.6094 341.8614,-84.2357 342.5302,-84.8714 343.2018,-85.5165 343.5446,-86.0881 342.3415,-90.7541 341.7651,-91.0887 340.8653,-91.3287 339.9725,-91.5617 339.0868,-91.788 338.2082,-92.0074 337.3368,-92.2202 336.4726,-92.4263 335.6157,-92.626 334.7661,-92.8192 333.9238,-93.0061 333.089,-93.1867 332.2616,-93.3611 331.4416,-93.5294 330.6292,-93.6917 329.8243,-93.848 329.0271,-93.9986 328.2375,-94.1433 327.4556,-94.2824 326.6813,-94.4159 325.9149,-94.5438 325.1562,-94.6664 324.4054,-94.7836 323.6624,-94.8955 322.9273,-95.0023 322.2002,-95.1041 321.481,-95.2008 320.7698,-95.2926 320.0667,-95.3796 319.3716,-95.4619 318.6845,-95.5396 318.0056,-95.6127 316.9592,-98.0242 316.9592,-98.0242 316.4615,-100.6055 316.9806,-101.0491 317.5039,-101.501 318.0312,-101.9614 318.5624,-102.4301 319.0976,-102.9074 319.6366,-103.3933 320.1794,-103.8877 320.7258,-104.3909 321.2759,-104.9027 321.8295,-105.4233 322.3865,-105.9528 322.9469,-106.4911 323.5106,-107.0383 324.0775,-107.5946 324.6475,-108.1598 325.2206,-108.7341 325.7967,-109.3175 326.3756,-109.9101 326.9574,-110.5119 327.5419,-111.123 328.1291,-111.7434 328.7188,-112.3731 329.311,-113.0122 329.9056,-113.6608 330.5025,-114.3188 331.1017,-114.9864 331.703,-115.6635 332.3063,-116.3502 332.9117,-117.0466 333.5189,-117.7527 333.8058,-118.3542 332.1646,-122.8848 331.5591,-123.1631 330.6405,-123.3165 329.7296,-123.4636 328.8264,-123.6046 327.9309,-123.7395 327.0433,-123.8685 326.1634,-123.9916 325.2914,-124.1089 324.4272,-124.2205 323.571,-124.3264 322.7228,-124.4268 321.8825,-124.5218 321.0503,-124.6114 320.2261,-124.6957 319.4101,-124.7749 318.6021,-124.8489 317.8023,-124.918 317.0107,-124.9821 316.2273,-125.0414 315.4522,-125.0959 314.6853,-125.1458 313.9267,-125.1911 313.1765,-125.2319 312.4346,-125.2684 311.701,-125.3005 310.9759,-125.3284 310.2592,-125.3522 309.551,-125.372 308.8512,-125.3879 308.1599,-125.3999 307.4771,-125.4081 306.2062,-127.7093 306.2062,-127.7093 305.4654,-130.2315 305.94,-130.7225 306.4179,-131.2221 306.8991,-131.7305 307.3834,-132.2476 307.8707,-132.7736 308.3611,-133.3085 308.8544,-133.8523 309.3506,-134.4051 309.8495,-134.9669 310.3511,-135.5378 310.8553,-136.1178 311.3619,-136.707 311.8711,-137.3053 312.3825,-137.9129 312.8963,-138.5298 313.4122,-139.1559 313.9302,-139.7915 314.4502,-140.4364 314.9721,-141.0908 315.4959,-141.7547 316.0214,-142.428 316.5486,-143.111 317.0773,-143.8035 317.6076,-144.5056 318.1393,-145.2174 318.6723,-145.9389 319.2065,-146.6701 319.7418,-147.4111 320.2782,-148.1619 320.8156,-148.9225 321.044,-149.5486 318.9796,-153.9026 318.3504,-154.1221 317.4214,-154.1874 316.5006,-154.2473 315.5881,-154.3018 314.6839,-154.351 313.7879,-154.3951 312.9003,-154.4339 312.0211,-154.4678 311.1503,-154.4967 310.2879,-154.5208 309.4339,-154.5402 308.5885,-154.5548 307.7515,-154.5649 306.923,-154.5705 306.1031,-154.5718 305.2918,-154.5687 304.4891,-154.5614 303.6949,-154.5499 302.9095,-154.5345 302.1326,-154.5151 301.3645,-154.4918 300.6051,-154.4648 299.8543,-154.4342 299.1123,-154.3999 298.3791,-154.3622 297.6546,-154.3211 296.9388,-154.2767 296.2319,-154.229 295.5338,-154.1783 294.8445,-154.1245 294.164,-154.0678 292.6801,-156.2377 292.6801,-156.2377 291.703,-158.6782 292.1287,-159.212 292.557,-159.7548 292.9876,-160.3066 293.4206,-160.8674 293.8558,-161.4374 294.2931,-162.0165 294.7325,-162.6047 295.1738,-163.2022 295.6171,-163.8089 296.0621,-164.4248 296.5089,-165.0501 296.9573,-165.6848 297.4072,-166.3288 297.8586,-166.9823 298.3113,-167.6452 298.7654,-168.3175 299.2206,-168.9995 299.677,-169.6909 300.1343,-170.3919 300.5926,-171.1026 301.0518,-171.8229 301.5116,-172.5528 301.9722,-173.2925 302.4333,-174.0418 302.8949,-174.8009 303.3569,-175.5698 303.8192,-176.3485 304.2817,-177.137 304.7443,-177.9354 305.207,-178.7436 305.3748,-179.3886 302.9059,-183.5267 302.2586,-183.6853 301.3276,-183.6621 300.4053,-183.6342 299.4918,-183.6017 298.5869,-183.5647 297.6909,-183.5234 296.8036,-183.4777 295.9252,-183.4279 295.0555,-183.3739 294.1947,-183.3159 293.3428,-183.254 292.4998,-183.1882 291.6656,-183.1187 290.8404,-183.0455 290.0241,-182.9688 289.2167,-182.8886 288.4183,-182.805 287.6289,-182.7182 286.8484,-182.6281 286.077,-182.535 285.3145,-182.4388 284.5611,-182.3397 283.8167,-182.2378 283.0813,-182.1332 282.3549,-182.026 281.6376,-181.9162 280.9294,-181.8039 280.2302,-181.6893 279.54,-181.5724 278.859,-181.4534 278.187,-181.3322 276.5035,-183.3513 276.5035,-183.3513 275.2988,-185.6878 275.6719,-186.2597 276.0466,-186.8407 276.4228,-187.4309 276.8005,-188.0304 277.1796,-188.6391 277.5598,-189.2572 277.9413,-189.8845 278.3239,-190.5212 278.7075,-191.1673 279.0919,-191.8228 279.4772,-192.4877 279.8633,-193.1621 280.2499,-193.846 280.6372,-194.5394 281.0249,-195.2423 281.413,-195.9548 281.8013,-196.6769 282.1899,-197.4086 282.5785,-198.15 282.9672,-198.901 283.3558,-199.6616 283.7442,-200.432 284.1323,-201.2121 284.5201,-202.0019 284.9075,-202.8014 285.2943,-203.6107 285.6805,-204.4298 286.0659,-205.2587 286.4506,-206.0975 286.8343,-206.946 286.9401,-207.604 284.089,-211.4887 283.4296,-211.5851 282.505,-211.4735 281.5895,-211.358 280.6832,-211.2388 279.786,-211.116 278.8979,-210.9897 278.019,-210.8599 277.1493,-210.7268 276.2887,-210.5904 275.4373,-210.4508 274.5951,-210.3082 273.7622,-210.1626 272.9384,-210.0141 272.1239,-209.8628 271.3186,-209.7088 270.5225,-209.5523 269.7356,-209.3932 268.958,-209.2317 268.1897,-209.0678 267.4305,-208.9018 266.6807,-208.7336 265.9401,-208.5633 265.2087,-208.3911 264.4866,-208.2171 263.7737,-208.0413 263.0701,-207.8638 262.3757,-207.6847 261.6906,-207.5042 261.0147,-207.3222 260.348,-207.139 259.6906,-206.9545 257.8228,-208.8044 257.8228,-208.8044 256.4015,-211.0158 256.7185,-211.6205 257.0363,-212.2346 257.3547,-212.8579 257.6737,-213.4906 257.9932,-214.1326 258.313,-214.7839 258.6331,-215.4447 258.9534,-216.1149 259.2738,-216.7945 259.5943,-217.4836 259.9146,-218.1821 260.2348,-218.8902 260.5547,-219.6077 260.8743,-220.3348 261.1934,-221.0714 261.512,-221.8175 261.83,-222.5733 262.1472,-223.3386 262.4636,-224.1135 262.7792,-224.8981 263.0937,-225.6922 263.4071,-226.496 263.7194,-227.3095 264.0303,-228.1325 264.3399,-228.9653 264.648,-229.8077 264.9546,-230.6598 265.2595,-231.5216 265.5627,-232.3931 265.864,-233.2743 265.9068,-233.9394 262.6993,-237.5354 262.0337,-237.5687 261.124,-237.3697 260.2236,-237.1678 259.3327,-236.963 258.4512,-236.7554 257.5792,-236.5452 256.7166,-236.3325 255.8635,-236.1173 255.0198,-235.8997 254.1855,-235.6799 253.3607,-235.4578 252.5453,-235.2337 251.7394,-235.0076 250.9429,-234.7796 250.1559,-234.5497 249.3783,-234.3182 248.6102,-234.085 247.8514,-233.8503 247.1021,-233.6142 246.3622,-233.3767 245.6317,-233.138 244.9107,-232.8982 244.199,-232.6572 243.4967,-232.4153 242.8037,-232.1725 242.1202,-231.929 241.446,-231.6847 240.7811,-231.4398 240.1256,-231.1945 239.4793,-230.9487 238.8424,-230.7026 236.8073,-232.3665 236.8073,-232.3665 235.1821,-234.4328 235.4403,-235.0649 235.6982,-235.7064 235.956,-236.3572 236.2134,-237.0173 236.4704,-237.6868 236.7268,-238.3656 236.9827,-239.0538 237.2378,-239.7514 237.4922,-240.4584 237.7457,-241.1748 237.9982,-241.9006 238.2496,-242.6359 238.4999,-243.3806 238.7489,-244.1348 238.9965,-244.8984 239.2428,-245.6714 239.4874,-246.454 239.7305,-247.246 239.9718,-248.0475 240.2113,-248.8585 240.449,-249.6789 240.6846,-250.5089 240.9181,-251.3483 241.1494,-252.1972 241.3784,-253.0556 241.6051,-253.9235 241.8293,-254.8009 242.0509,-255.6878 242.2698,-256.5841 242.486,-257.49 242.4654,-258.1561 238.9306,-261.431 238.2649,-261.4009 237.3781,-261.1163 236.5011,-260.8297 235.6337,-260.5411 234.7759,-260.2507 233.9278,-259.9586 233.0893,-259.6648 232.2605,-259.3695 231.4413,-259.0727 230.6317,-258.7745 229.8318,-258.4751 229.0414,-258.1745 228.2606,-257.8728 227.4894,-257.5701 226.7278,-257.2665 225.9757,-256.9621 225.2332,-256.657 224.5002,-256.3512 223.7768,-256.0449 223.0628,-255.7382 222.3583,-255.4311 221.6633,-255.1238 220.9777,-254.8163 220.3016,-254.5088 219.6349,-254.2012 218.9776,-253.8938 218.3297,-253.5865 217.6911,-253.2796 217.0618,-252.973 216.4419,-252.6669 215.8312,-252.3613 213.6471,-253.8243 213.6471,-253.8243 211.833,-255.7267 212.0298,-256.3806 212.2257,-257.0437 212.4204,-257.716 212.6139,-258.3976 212.806,-259.0884 212.9968,-259.7886 213.1861,-260.498 213.3738,-261.2167 213.5598,-261.9446 213.744,-262.6819 213.9264,-263.4285 214.1068,-264.1843 214.2851,-264.9494 214.4613,-265.7238 214.6353,-266.5075 214.8069,-267.3005 214.9761,-268.1027 215.1428,-268.9143 215.3068,-269.7351 215.4682,-270.5651 215.6267,-271.4045 215.7823,-272.2531 215.935,-273.1109 216.0846,-273.978 216.231,-274.8543 216.3741,-275.7398 216.5139,-276.6345 216.6502,-277.5384 216.7829,-278.4515 216.9121,-279.3738 216.8282,-280.035 212.9981,-282.959 212.3383,-282.8658 211.4826,-282.4982 210.6367,-282.1295 209.8007,-281.7598 208.9744,-281.3892 208.1579,-281.0177 207.3512,-280.6456 206.5542,-280.2728 205.7669,-279.8995 204.9893,-279.5257 204.2214,-279.1516 203.4632,-278.7772 202.7147,-278.4027 201.9757,-278.028 201.2464,-277.6534 200.5267,-277.2789 199.8166,-276.9046 199.116,-276.5305 198.4249,-276.1569 197.7433,-275.7837 197.0712,-275.411 196.4085,-275.039 195.7553,-274.6678 195.1115,-274.2973 194.477,-273.9278 193.8519,-273.5593 193.2361,-273.1918 192.6296,-272.8255 192.0323,-272.4605 191.4443,-272.0969 190.8655,-271.7347 188.5522,-272.9834 188.5522,-272.9834 186.5654,-274.7048 186.6992,-275.3744 186.8311,-276.0531 186.9611,-276.7409 187.0889,-277.4378 187.2145,-278.1438 187.3379,-278.8589 187.4589,-279.5831 187.5774,-280.3163 187.6934,-281.0587 187.8067,-281.8101 187.9172,-282.5706 188.025,-283.3402 188.1298,-284.1188 188.2316,-284.9064 188.3302,-285.7031 188.4257,-286.5088 188.5179,-287.3235 188.6066,-288.1472 188.6919,-288.9799 188.7736,-289.8216 188.8517,-290.6722 188.926,-291.5317 188.9964,-292.4001 189.0629,-293.2775 189.1253,-294.1638 189.1836,-295.0589 189.2377,-295.9628 189.2875,-296.8756 189.3328,-297.7972 189.3737,-298.7276 189.2273,-299.3778 185.1367,-301.9245 184.4887,-301.769 183.6718,-301.3217 182.8649,-300.8743 182.0677,-300.4268 181.2804,-299.9793 180.5029,-299.5319 179.7352,-299.0848 178.9773,-298.6379 178.229,-298.1915 177.4905,-297.7455 176.7617,-297.3001 176.0425,-296.8553 175.3329,-296.4113 174.6329,-295.9681 173.9425,-295.5259 173.2617,-295.0846 172.5903,-294.6445 171.9284,-294.2056 171.276,-293.7679 170.633,-293.3316 169.9994,-292.8968 169.3751,-292.4635 168.7601,-292.0318 168.1544,-291.6018 167.5579,-291.1736 166.9707,-290.7474 166.3926,-290.323 165.8236,-289.9008 165.2638,-289.4807 164.713,-289.0628 164.1712,-288.6472 161.7497,-289.6704 161.7497,-289.6704 159.6083,-291.1951 159.6778,-291.8744 159.7446,-292.5625 159.8086,-293.2595 159.8696,-293.9654 159.9276,-294.6802 159.9824,-295.4038 160.034,-296.1362 160.0823,-296.8774 160.1271,-297.6274 160.1685,-298.3862 160.2063,-299.1538 160.2404,-299.9301 160.2707,-300.7152 160.2972,-301.5089 160.3197,-302.3114 160.3381,-303.1225 160.3524,-303.9423 160.3625,-304.7707 160.3682,-305.6077 160.3696,-306.4533 160.3664,-307.3075 160.3586,-308.1702 160.3462,-309.0414 160.329,-309.9211 160.3069,-310.8093 160.2799,-311.7059 160.2478,-312.6109 160.2105,-313.5243 160.1681,-314.446 160.1203,-315.376 159.9128,-316.0094 155.5986,-318.1558 154.9683,-317.9393 154.1977,-317.4164 153.4369,-316.8943 152.6859,-316.373 151.9447,-315.8528 151.2133,-315.3335 150.4915,-314.8154 149.7795,-314.2986 149.0771,-313.783 148.3843,-313.2688 147.7011,-312.7561 147.0274,-312.245 146.3633,-311.7356 145.7086,-311.2279 145.0634,-310.722 144.4276,-310.218 143.8011,-309.7161 143.1839,-309.2162 142.576,-308.7185 141.9774,-308.2231 141.388,-307.73 140.8077,-307.2393 140.2365,-306.7511 139.6745,-306.2655 139.1214,-305.7826 138.5773,-305.3024 138.0422,-304.8251 137.516,-304.3506 136.9986,-303.8792 136.49,-303.4108 135.9902,-302.9456 133.4824,-303.734 133.4824,-303.734 131.2057,-305.0483 131.2104,-305.7311 131.2115,-306.4225 131.2089,-307.1224 131.2025,-307.8309 131.1923,-308.5479 131.1781,-309.2734 131.1598,-310.0074 131.1374,-310.7499 131.1108,-311.5008 131.0798,-312.2601 131.0445,-313.0278 131.0046,-313.8038 130.9602,-314.5882 130.9111,-315.3809 130.8572,-316.1818 130.7985,-316.991 130.7348,-317.8085 130.6661,-318.6341 130.5922,-319.4679 130.5132,-320.3098 130.4288,-321.1597 130.3391,-322.0178 130.2439,-322.8839 130.1431,-323.758 130.0367,-324.64 129.9246,-325.53 129.8066,-326.4279 129.6827,-327.3336 129.5529,-328.2471 129.4169,-329.1684 129.1501,-329.7791 124.6514,-331.5057 124.0446,-331.2303 123.3271,-330.6365 122.6194,-330.0445 121.9214,-329.4542 121.233,-328.8658 120.5542,-328.2794 119.885,-327.6951 119.2253,-327.1128 118.5751,-326.5328 117.9343,-325.9551 117.3029,-325.3798 116.6809,-324.807 116.0682,-324.2367 115.4648,-323.6691 114.8705,-323.1042 114.2855,-322.5421 113.7095,-321.9828 113.1427,-321.4266 112.5849,-320.8733 112.0361,-320.3232 111.4962,-319.7763 110.9652,-319.2327 110.443,-318.6924 109.9296,-318.1556 109.425,-317.6223 108.929,-317.0926 108.4417,-316.5665 107.9629,-316.0442 107.4927,-315.5257 107.0309,-315.0112 106.5776,-314.5005 104.0062,-315.047 104.0062,-315.047 101.6149,-316.1389 101.5547,-316.819 101.49,-317.5074 101.4209,-318.2039 101.3472,-318.9086 101.2689,-319.6214 101.1858,-320.3423 101.0978,-321.0712 101.0049,-321.8082 100.9071,-322.5532 100.8041,-323.3061 100.6959,-324.0669 100.5825,-324.8357 100.4637,-325.6123 100.3394,-326.3967 100.2097,-327.1889 100.0743,-327.9889 99.9332,-328.7965 99.7863,-329.6119 99.6335,-330.4349 99.4748,-331.2654 99.3101,-332.1036 99.1392,-332.9492 98.9621,-333.8023 98.7787,-334.6629 98.5889,-335.5308 98.3927,-336.4061 98.1899,-337.2887 97.9805,-338.1785 97.7644,-339.0755 97.5414,-339.9798 97.2178,-340.5624 92.5754,-341.8535 91.9974,-341.5217 91.3397,-340.8624 90.6915,-340.2057 90.0527,-339.5518 89.4234,-338.9006 88.8034,-338.2523 88.1928,-337.607 87.5914,-336.9647 86.9993,-336.3256 86.4163,-335.6896 85.8425,-335.0569 85.2777,-334.4275 84.722,-333.8016 84.1752,-333.1791 83.6374,-332.5603 83.1084,-331.9451 82.5882,-331.3337 82.0768,-330.726 81.5741,-330.1223 81.0801,-329.5225 80.5946,-328.9267 80.1177,-328.3351 79.6493,-327.7476 79.1892,-327.1644 78.7376,-326.5856 78.2942,-326.0111 77.8591,-325.4411 77.4321,-324.8757 77.0133,-324.3148 76.6026,-323.7587 76.1998,-323.2073 73.5881,-323.5068 73.5881,-323.5068 71.1039,-324.3665 70.9792,-325.0378 70.8495,-325.7169 70.7145,-326.4037 70.5741,-327.0982 70.4284,-327.8004 70.2771,-328.5101 70.1203,-329.2274 69.9578,-329.9522 69.7895,-330.6844 69.6154,-331.4242 69.4354,-332.1713 69.2494,-332.9258 69.0574,-333.6876 68.8591,-334.4566 68.6546,-335.2329 68.4438,-336.0164 68.2266,-336.807 68.0029,-337.6047 67.7726,-338.4094 67.5356,-339.2211 67.2919,-340.0398 67.0414,-340.8654 66.784,-341.6978 66.5197,-342.537 66.2483,-343.383 65.9697,-344.2356 65.6839,-345.0949 65.3909,-345.9608 65.0905,-346.8333 64.7826,-347.7122 64.4051,-348.2614 59.661,-349.1054 59.1172,-348.7201 58.5251,-348.0013 57.9422,-347.286 57.3685,-346.5743 56.8039,-345.8663 56.2484,-345.162 55.7018,-344.4616 55.1642,-343.765 54.6355,-343.0725 54.1157,-342.3839 53.6046,-341.6995 53.1022,-341.0193 52.6085,-340.3434 52.1234,-339.6718 51.6468,-339.0047 51.1787,-338.342 50.719,-337.6839 50.2677,-337.0304 49.8247,-336.3816 49.3899,-335.7375 48.9632,-335.0983 48.5447,-334.464 48.1342,-333.8347 47.7317,-333.2104 47.3371,-332.5913 46.9503,-331.9773 46.5714,-331.3685 46.2001,-330.765 45.8365,-330.1669 45.4805,-329.5742 45.132,-328.987 42.5036,-329.037 42.5036,-329.037 39.9489,-329.6566 39.761,-330.313 39.5673,-330.9767 39.3676,-331.6476 39.1619,-332.3256 38.9501,-333.0107 38.732,-333.7028 38.5077,-334.402 38.2771,-335.108 38.04,-335.821 37.7963,-336.5408 37.5461,-337.2675 37.2893,-338.0008 37.0257,-338.7409 36.7552,-339.4876 36.4778,-340.241 36.1935,-341.0009 35.9021,-341.7672 35.6036,-342.54 35.2978,-343.3192 34.9848,-344.1048 34.6644,-344.8966 34.3365,-345.6946 34.0012,-346.4988 33.6582,-347.3091 33.3076,-348.1254 32.9493,-348.9477 32.5832,-349.776 32.2091,-350.6101 31.8272,-351.45 31.4372,-352.2957 31.0091,-352.8066 26.2062,-353.1958 25.7015,-352.7605 25.1804,-351.9887 24.6682,-351.2212 24.1647,-350.4582 23.67,-349.6997 23.1839,-348.9458 22.7064,-348.1966 22.2375,-347.4521 21.777,-346.7124 21.325,-345.9776 20.8813,-345.2477 20.4458,-344.5229 20.0186,-343.8031 19.5995,-343.0884 19.1885,-342.379 18.7855,-341.6748 18.3905,-340.9759 18.0033,-340.2825 17.6239,-339.5945 17.2523,-338.9121 16.8884,-338.2352 16.5321,-337.564 16.1832,-336.8985 15.8419,-336.2388 15.5079,-335.5849 15.1813,-334.9369 14.8619,-334.2949 14.5497,-333.6589 14.2446,-333.0289 13.9465,-332.4051 13.6554,-331.7874 11.0342,-331.5873 11.0342,-331.5873 8.4322,-331.9612 8.1827,-332.5969 7.9268,-333.2392 7.6642,-333.888 7.395,-334.5434 7.119,-335.2052 6.8362,-335.8735 6.5464,-336.5481 6.2497,-337.2291 5.9459,-337.9163 5.635,-338.6097 5.3168,-339.3093 4.9914,-340.0149 4.6586,-340.7266 4.3184,-341.4442 3.9707,-342.1678 3.6154,-342.8972 3.2525,-343.6324 2.8819,-344.3733 2.5034,-345.1199 2.1171,-345.8721 1.7229,-346.6299 1.3207,-347.3932 0.9104,-348.1618 0.492,-348.9358 0.0654,-349.7152 -0.3695,-350.4997 -0.8127,-351.2894 -1.2643,-352.0842 -1.7244,-352.884 -2.193,-353.6888 -2.6677,-354.1566 -7.4858,-354.0875 -7.9469,-353.6063 -8.3922,-352.7884 -8.8292,-351.9757 -9.2579,-351.1683 -9.6783,-350.3662 -10.0905,-349.5696 -10.4946,-348.7783 -10.8906,-347.9926 -11.2787,-347.2125 -11.6589,-346.4381 -12.0312,-345.6693 -12.3958,-344.9063 -12.7526,-344.1492 -13.1019,-343.3979 -13.4436,-342.6526 -13.7778,-341.9133 -14.1046,-341.1801 -14.4241,-340.453 -14.7364,-339.7321 -15.0414,-339.0174 -15.3394,-338.309 -15.6303,-337.607 -15.9143,-336.9114 -16.1914,-336.2222 -16.4617,-335.5395 -16.7252,-334.8634 -16.9821,-334.1939 -17.2325,-333.5311 -17.4763,-332.875 -17.7138,-332.2256 -17.9448,-331.5831 -20.5351,-331.1347 -20.5351,-331.1347 -23.1609,-331.2596 -23.4697,-331.8687 -23.7855,-332.4837 -24.1085,-333.1047 -24.4389,-333.7315 -24.7765,-334.3641 -25.1216,-335.0025 -25.4742,-335.6465 -25.8343,-336.2962 -26.202,-336.9514 -26.5774,-337.6121 -26.9606,-338.2782 -27.3517,-338.9498 -27.7506,-339.6266 -28.1575,-340.3086 -28.5724,-340.9959 -28.9954,-341.6882 -29.4266,-342.3856 -29.866,-343.0879 -30.3137,-343.7952 -30.7697,-344.5073 -31.2342,-345.2241 -31.7071,-345.9457 -32.1886,-346.6719 -32.6787,-347.4026 -33.1774,-348.1378 -33.6849,-348.8775 -34.2012,-349.6215 -34.7263,-350.3697 -35.2604,-351.1222 -35.8034,-351.8788 -36.3203,-352.2994 -41.1101,-351.7726 -41.5233,-351.2497 -41.8889,-350.3932 -42.2466,-349.5427 -42.5966,-348.6982 -42.9389,-347.8598 -43.2735,-347.0275 -43.6005,-346.2015 -43.9201,-345.3817 -44.2323,-344.5682 -44.5371,-343.7611 -44.8347,-342.9605 -45.1251,-342.1663 -45.4083,-341.3786 -45.6846,-340.5976 -45.9539,-339.8232 -46.2163,-339.0555 -46.472,-338.2945 -46.7209,-337.5403 -46.9632,-336.793 -47.199,-336.0525 -47.4282,-335.319 -47.6511,-334.5925 -47.8677,-333.873 -48.078,-333.1606 -48.2822,-332.4554 -48.4803,-331.7573 -48.6724,-331.0664 -48.8586,-330.3828 -49.039,-329.7065 -49.2136,-329.0375 -49.3826,-328.3759 -51.9185,-327.6833 -51.9185,-327.6833 -54.5443,-327.5581 -54.9095,-328.135 -55.2824,-328.7172 -55.663,-329.3047 -56.0514,-329.8973 -56.4477,-330.4949 -56.8518,-331.0976 -57.264,-331.7052 -57.6843,-332.3177 -58.1126,-332.935 -58.5492,-333.557 -58.994,-334.1837 -59.447,-334.815 -59.9085,-335.4509 -60.3784,-336.0911 -60.8567,-336.7358 -61.3436,-337.3848 -61.8391,-338.038 -62.3433,-338.6954 -62.8562,-339.3569 -63.3779,-340.0225 -63.9084,-340.6919 -64.4477,-341.3653 -64.9961,-342.0424 -65.5534,-342.7232 -66.1198,-343.4077 -66.6953,-344.0958 -67.28,-344.7873 -67.8738,-345.4823 -68.477,-346.1806 -69.0894,-346.8821 -69.6441,-347.2517 -74.3621,-346.272 -74.7237,-345.7122 -75.0062,-344.8248 -75.2815,-343.9441 -75.5496,-343.0702 -75.8106,-342.203 -76.0646,-341.3427 -76.3116,-340.4893 -76.5518,-339.6429 -76.7853,-338.8034 -77.012,-337.971 -77.2321,-337.1457 -77.4457,-336.3275 -77.6528,-335.5165 -77.8536,-334.7127 -78.0481,-333.9162 -78.2363,-333.127 -78.4185,-332.3452 -78.5946,-331.5708 -78.7648,-330.8038 -78.9291,-330.0443 -79.0876,-329.2923 -79.2404,-328.5479 -79.3876,-327.8111 -79.5292,-327.082 -79.6654,-326.3605 -79.7963,-325.6467 -79.9219,-324.9407 -80.0422,-324.2425 -80.1575,-323.5521 -80.2678,-322.8695 -80.3731,-322.1949 -82.8317,-321.2644 -82.8317,-321.2644 -85.4337,-320.8901 -85.8521,-321.4297 -86.2786,-321.9739 -86.7133,-322.5225 -87.1563,-323.0754 -87.6076,-323.6327 -88.0672,-324.1942 -88.5353,-324.7599 -89.0119,-325.3297 -89.497,-325.9035 -89.9907,-326.4812 -90.493,-327.0628 -91.0041,-327.6482 -91.5239,-328.2372 -92.0525,-328.83 -92.5899,-329.4263 -93.1363,-330.026 -93.6917,-330.6292 -94.2561,-331.2357 -94.8295,-331.8454 -95.4121,-332.4584 -96.0038,-333.0744 -96.6048,-333.6934 -97.215,-334.3153 -97.8345,-334.9401 -98.4634,-335.5677 -99.1017,-336.1979 -99.7494,-336.8307 -100.4067,-337.4661 -101.0735,-338.1039 -101.7498,-338.7441 -102.3371,-339.0592 -106.9406,-337.6355 -107.2474,-337.0439 -107.4443,-336.1336 -107.6346,-335.2308 -107.8184,-334.3353 -107.9958,-333.4473 -108.1669,-332.5667 -108.3317,-331.6937 -108.4903,-330.8283 -108.6429,-329.9704 -108.7895,-329.1202 -108.9301,-328.2777 -109.065,-327.4429 -109.1941,-326.6159 -109.3175,-325.7967 -109.4354,-324.9853 -109.5478,-324.1818 -109.6548,-323.3862 -109.7565,-322.5985 -109.853,-321.8188 -109.9444,-321.0472 -110.0307,-320.2835 -110.1121,-319.528 -110.1885,-318.7805 -110.2602,-318.0412 -110.3272,-317.31 -110.3897,-316.587 -110.4475,-315.8723 -110.501,-315.1658 -110.5501,-314.4676 -110.595,-313.7776 -110.6357,-313.096 -112.9947,-311.936 -112.9947,-311.936 -115.5494,-311.3161 -116.0172,-311.8135 -116.4935,-312.3146 -116.9784,-312.8194 -117.4719,-313.3278 -117.9741,-313.8397 -118.4851,-314.3549 -119.0048,-314.8736 -119.5334,-315.3955 -120.0708,-315.9205 -120.6172,-316.4487 -121.1725,-316.9799 -121.7369,-317.5141 -122.3104,-318.0511 -122.8929,-318.5909 -123.4846,-319.1334 -124.0856,-319.6785 -124.6957,-320.2261 -125.3152,-320.7762 -125.944,-321.3287 -126.5822,-321.8835 -127.2298,-322.4404 -127.8869,-322.9995 -128.5535,-323.5606 -129.2296,-324.1237 -129.9153,-324.6886 -130.6106,-325.2554 -131.3156,-325.8238 -132.0302,-326.3938 -132.7546,-326.9653 -133.4888,-327.5383 -134.1033,-327.7962 -138.5506,-325.9413 -138.7998,-325.3232 -138.9093,-324.3984 -139.0129,-323.4815 -139.1108,-322.5726 -139.203,-321.6717 -139.2895,-320.7789 -139.3706,-319.8942 -139.4463,-319.0176 -139.5166,-318.1491 -139.5817,-317.2888 -139.6417,-316.4368 -139.6966,-315.5929 -139.7465,-314.7574 -139.7915,-313.9302 -139.8317,-313.1112 -139.8672,-312.3007 -139.8981,-311.4985 -139.9245,-310.7047 -139.9464,-309.9194 -139.964,-309.1426 -139.9774,-308.3742 -139.9865,-307.6143 -139.9916,-306.863 -139.9927,-306.1202 -139.9899,-305.3859 -139.9833,-304.6603 -139.973,-303.9433 -139.9591,-303.2349 -139.9416,-302.5352 -139.9207,-301.8441 -139.8964,-301.1617 -142.1345,-299.7827 -142.1345,-299.7827 -144.6186,-298.9228 -145.1316,-299.3735 -145.6534,-299.827 -146.1841,-300.2835 -146.7237,-300.7426 -147.2723,-301.2044 -147.8299,-301.6688 -148.3966,-302.1357 -148.9724,-302.6049 -149.5573,-303.0766 -150.1514,-303.5504 -150.7547,-304.0264 -151.3673,-304.5045 -151.9892,-304.9846 -152.6204,-305.4665 -153.261,-305.9503 -153.9111,-306.4359 -154.5705,-306.923 -155.2395,-307.4118 -155.918,-307.902 -156.606,-308.3936 -157.3036,-308.8864 -158.0109,-309.3805 -158.7278,-309.8757 -159.4543,-310.372 -160.1906,-310.8692 -160.9367,-311.3672 -161.6925,-311.8661 -162.4581,-312.3656 -163.2335,-312.8656 -164.0188,-313.3662 -164.6551,-313.5646 -168.906,-311.2954 -169.0952,-310.6563 -169.1163,-309.7253 -169.1323,-308.8027 -169.1433,-307.8887 -169.1495,-306.9831 -169.1508,-306.0861 -169.1474,-305.1977 -169.1394,-304.3178 -169.1269,-303.4466 -169.1099,-302.584 -169.0886,-301.7301 -169.063,-300.8849 -169.0333,-300.0484 -168.9995,-299.2206 -168.9617,-298.4016 -168.92,-297.5913 -168.8745,-296.7899 -168.8253,-295.9972 -168.7725,-295.2133 -168.7161,-294.4383 -168.6564,-293.6721 -168.5932,-292.9148 -168.5269,-292.1664 -168.4574,-291.4269 -168.3848,-290.6962 -168.3093,-289.9745 -168.2308,-289.2617 -168.1496,-288.5579 -168.0657,-287.863 -167.9792,-287.177 -167.8902,-286.5 -169.987,-284.9145 -169.987,-284.9145 -172.3782,-283.8223 -172.9317,-284.2222 -173.4942,-284.6242 -174.0659,-285.0281 -174.6467,-285.4338 -175.2367,-285.8414 -175.836,-286.2507 -176.4445,-286.6616 -177.0622,-287.074 -177.6893,-287.4879 -178.3258,-287.9031 -178.9716,-288.3196 -179.6269,-288.7373 -180.2916,-289.1561 -180.9658,-289.5759 -181.6495,-289.9966 -182.3427,-290.4181 -183.0455,-290.8404 -183.7579,-291.2633 -184.4799,-291.6868 -185.2116,-292.1108 -185.9529,-292.5351 -186.7039,-292.9597 -187.4646,-293.3846 -188.235,-293.8095 -189.0153,-294.2345 -189.8053,-294.6594 -190.6051,-295.0841 -191.4147,-295.5085 -192.2342,-295.9326 -193.0635,-296.3563 -193.7157,-296.4932 -197.7317,-293.8303 -197.8593,-293.1761 -197.7918,-292.2473 -197.72,-291.3274 -197.6441,-290.4164 -197.5642,-289.5144 -197.4802,-288.6213 -197.3924,-287.7372 -197.3008,-286.8621 -197.2055,-285.996 -197.1066,-285.139 -197.0042,-284.291 -196.8984,-283.452 -196.7893,-282.6221 -196.6769,-281.8013 -196.5615,-280.9896 -196.4429,-280.187 -196.3215,-279.3934 -196.1971,-278.609 -196.0701,-277.8337 -195.9403,-277.0676 -195.808,-276.3106 -195.6732,-275.5627 -195.536,-274.824 -195.3965,-274.0944 -195.2548,-273.374 -195.111,-272.6627 -194.9651,-271.9606 -194.8174,-271.2676 -194.6678,-270.5838 -194.5165,-269.9092 -194.3635,-269.2437 -196.3002,-267.4661 -196.3002,-267.4661 -198.5767,-266.1516 -199.1657,-266.4971 -199.7639,-266.8437 -200.3714,-267.1914 -200.9881,-267.5402 -201.6142,-267.8898 -202.2496,-268.2402 -202.8944,-268.5914 -203.5486,-268.9433 -204.2122,-269.2957 -204.8853,-269.6485 -205.5678,-270.0017 -206.2598,-270.3553 -206.9613,-270.709 -207.6723,-271.0628 -208.3929,-271.4166 -209.1231,-271.7703 -209.8628,-272.1239 -210.6122,-272.4772 -211.3712,-272.8301 -212.1398,-273.1826 -212.9181,-273.5345 -213.7061,-273.8859 -214.5037,-274.2365 -215.3111,-274.5862 -216.1282,-274.9351 -216.955,-275.283 -217.7915,-275.6297 -218.6378,-275.9753 -219.4939,-276.3196 -220.3597,-276.6625 -221.022,-276.7369 -224.7667,-273.7042 -224.8316,-273.0409 -224.6761,-272.1227 -224.5172,-271.2138 -224.355,-270.3141 -224.1897,-269.4238 -224.0212,-268.5427 -223.8497,-267.671 -223.6754,-266.8086 -223.4982,-265.9555 -223.3183,-265.1117 -223.1357,-264.2772 -222.9507,-263.4521 -222.7632,-262.6364 -222.5733,-261.83 -222.3812,-261.0329 -222.1869,-260.2452 -221.9905,-259.4668 -221.7922,-258.6977 -221.592,-257.938 -221.39,-257.1877 -221.1863,-256.4467 -220.981,-255.715 -220.7742,-254.9927 -220.566,-254.2796 -220.3565,-253.5759 -220.1457,-252.8816 -219.9338,-252.1965 -219.7209,-251.5207 -219.507,-250.8543 -219.2922,-250.1971 -219.0767,-249.5492 -220.8356,-247.5955 -220.8356,-247.5955 -222.9768,-246.0705 -223.596,-246.3584 -224.2245,-246.6466 -224.8622,-246.935 -225.5094,-247.2236 -226.1658,-247.5121 -226.8317,-247.8006 -227.5069,-248.0889 -228.1916,-248.377 -228.8857,-248.6647 -229.5892,-248.9519 -230.3022,-249.2387 -231.0247,-249.5248 -231.7567,-249.8102 -232.4981,-250.0949 -233.2491,-250.3786 -234.0095,-250.6613 -234.7796,-250.9429 -235.5591,-251.2234 -236.3482,-251.5026 -237.1469,-251.7804 -237.9551,-252.0568 -238.7729,-252.3316 -239.6003,-252.6048 -240.4372,-252.8763 -241.2838,-253.1459 -242.1399,-253.4136 -243.0056,-253.6793 -243.8809,-253.9428 -244.7659,-254.2042 -245.6604,-254.4632 -246.3267,-254.4743 -249.7661,-251.0994 -249.7677,-250.433 -249.5256,-249.5337 -249.2811,-248.644 -249.0341,-247.7638 -248.7849,-246.8932 -248.5334,-246.0322 -248.2799,-245.1807 -248.0243,-244.3387 -247.7668,-243.5063 -247.5075,-242.6835 -247.2465,-241.8702 -246.9838,-241.0664 -246.7196,-240.2722 -246.454,-239.4874 -246.187,-238.7122 -245.9187,-237.9465 -245.6492,-237.1903 -245.3787,-236.4436 -245.1072,-235.7064 -244.8348,-234.9787 -244.5616,-234.2604 -244.2877,-233.5515 -244.0132,-232.8521 -243.7381,-232.1621 -243.4626,-231.4815 -243.1868,-230.8103 -242.9107,-230.1485 -242.6345,-229.496 -242.3582,-228.8529 -242.082,-228.2191 -241.8058,-227.5946 -243.3711,-225.4826 -243.3711,-225.4826 -245.3577,-223.761 -246.0014,-223.9887 -246.6544,-224.2159 -247.3167,-224.4424 -247.9883,-224.6681 -248.6693,-224.8929 -249.3595,-225.1168 -250.0591,-225.3396 -250.7681,-225.5613 -251.4864,-225.7817 -252.214,-226.0008 -252.9511,-226.2185 -253.6974,-226.4347 -254.4532,-226.6492 -255.2184,-226.8621 -255.9929,-227.0731 -256.7768,-227.2823 -257.5701,-227.4894 -258.3728,-227.6945 -259.1849,-227.8975 -260.0063,-228.0981 -260.8371,-228.2964 -261.6774,-228.4923 -262.5269,-228.6856 -263.3859,-228.8762 -264.2543,-229.0642 -265.132,-229.2493 -266.019,-229.4314 -266.9154,-229.6106 -267.8212,-229.7867 -268.7363,-229.9595 -269.4007,-229.9072 -272.5037,-226.2206 -272.4419,-225.557 -272.1154,-224.6849 -271.7874,-223.8224 -271.4579,-222.9697 -271.127,-222.1268 -270.7949,-221.2935 -270.4616,-220.47 -270.1271,-219.6561 -269.7917,-218.852 -269.4553,-218.0575 -269.1182,-217.2727 -268.7803,-216.4975 -268.4418,-215.732 -268.1027,-214.9761 -267.7633,-214.2298 -267.4234,-213.493 -267.0833,-212.7659 -266.743,-212.0483 -266.4027,-211.3402 -266.0623,-210.6416 -265.7221,-209.9526 -265.382,-209.273 -265.0422,-208.6028 -264.7029,-207.9421 -264.3639,-207.2908 -264.0256,-206.6488 -263.6878,-206.0162 -263.3508,-205.393 -263.0147,-204.779 -262.6794,-204.1744 -262.3452,-203.5789 -263.7026,-201.3277 -263.7026,-201.3277 -265.5165,-199.4251 -266.179,-199.5906 -266.8506,-199.7547 -267.5314,-199.9172 -268.2215,-200.078 -268.9207,-200.2371 -269.6291,-200.3943 -270.3467,-200.5496 -271.0735,-200.7029 -271.8095,-200.8541 -272.5547,-201.003 -273.3091,-201.1496 -274.0727,-201.2939 -274.8454,-201.4356 -275.6273,-201.5748 -276.4184,-201.7112 -277.2187,-201.8449 -278.028,-201.9757 -278.8466,-202.1036 -279.6743,-202.2284 -280.5111,-202.3501 -281.357,-202.4685 -282.212,-202.5836 -283.0761,-202.6953 -283.9493,-202.8034 -284.8316,-202.908 -285.7229,-203.0088 -286.6233,-203.1058 -287.5327,-203.199 -288.4511,-203.2881 -289.3785,-203.3732 -290.0349,-203.258 -292.7734,-199.2932 -292.6488,-198.6385 -292.2409,-197.8013 -291.8324,-196.9739 -291.4234,-196.1564 -291.0139,-195.3487 -290.604,-194.5508 -290.1939,-193.7627 -289.7836,-192.9843 -289.3733,-192.2157 -288.9629,-191.4568 -288.5527,-190.7076 -288.1426,-189.968 -287.7329,-189.2381 -287.3235,-188.5179 -286.9146,-187.8072 -286.5063,-187.1061 -286.0986,-186.4146 -285.6916,-185.7326 -285.2855,-185.0601 -284.8803,-184.397 -284.4761,-183.7434 -284.073,-183.0992 -283.6711,-182.4644 -283.2704,-181.8389 -282.8711,-181.2227 -282.4733,-180.6159 -282.0769,-180.0183 -281.6822,-179.4299 -281.2892,-178.8506 -280.898,-178.2806 -280.5087,-177.7196 -281.6459,-175.3496 -281.6459,-175.3496 -283.2708,-173.2831 -283.946,-173.3849 -284.6302,-173.4844 -285.3234,-173.5814 -286.0256,-173.676 -286.7367,-173.7679 -287.4569,-173.857 -288.186,-173.9434 -288.9241,-174.0269 -289.6712,-174.1074 -290.4271,-174.1849 -291.192,-174.2591 -291.9658,-174.3301 -292.7486,-174.3978 -293.5402,-174.462 -294.3406,-174.5226 -295.15,-174.5796 -295.9681,-174.6329 -296.7951,-174.6824 -297.6309,-174.728 -298.4755,-174.7696 -299.3288,-174.807 -300.1909,-174.8403 -301.0618,-174.8694 -301.9413,-174.894 -302.8295,-174.9142 -303.7264,-174.9299 -304.6319,-174.9409 -305.546,-174.9472 -306.4687,-174.9486 -307.4,-174.9452 -308.0425,-174.768 -310.3917,-170.5609 -310.2055,-169.921 -309.7198,-169.1263 -309.2345,-168.3416 -308.7496,-167.5666 -308.2652,-166.8015 -307.7814,-166.0462 -307.2982,-165.3006 -306.8158,-164.5648 -306.3342,-163.8386 -305.8536,-163.1222 -305.374,-162.4153 -304.8955,-161.7181 -304.4183,-161.0305 -303.9423,-160.3524 -303.4677,-159.6838 -302.9945,-159.0247 -302.523,-158.3751 -302.053,-157.7348 -301.5848,-157.104 -301.1184,-156.4824 -300.6539,-155.8702 -300.1914,-155.2672 -299.7309,-154.6735 -299.2726,-154.089 -298.8166,-153.5135 -298.3628,-152.9472 -297.9115,-152.39 -297.4626,-151.8418 -297.0163,-151.3026 -296.5727,-150.7723 -296.1318,-150.2509 -297.0386,-147.7834 -297.0386,-147.7834 -298.4597,-145.5719 -299.1415,-145.609 -299.8321,-145.643 -300.5314,-145.6737 -301.2394,-145.7011 -301.9561,-145.725 -302.6814,-145.7453 -303.4155,-145.762 -304.1582,-145.7749 -304.9095,-145.7841 -305.6694,-145.7893 -306.4379,-145.7905 -307.2149,-145.7876 -308.0005,-145.7806 -308.7947,-145.7692 -309.5973,-145.7535 -310.4084,-145.7333 -311.2279,-145.7086 -312.0558,-145.6793 -312.8922,-145.6452 -313.7369,-145.6063 -314.5899,-145.5625 -315.4513,-145.5137 -316.3209,-145.4598 -317.1988,-145.4007 -318.0849,-145.3364 -318.9792,-145.2667 -319.8817,-145.1916 -320.7923,-145.111 -321.7109,-145.0247 -322.6377,-144.9328 -323.2604,-144.6954 -325.1991,-140.2839 -324.9529,-139.6646 -324.3939,-138.9198 -323.8362,-138.1847 -323.2798,-137.4594 -322.7248,-136.7438 -322.1714,-136.0378 -321.6195,-135.3416 -321.0694,-134.6549 -320.521,-133.9778 -319.9744,-133.3103 -319.4298,-132.6523 -318.8872,-132.0037 -318.3467,-131.3645 -317.8085,-130.7348 -317.2725,-130.1143 -316.7388,-129.5032 -316.2076,-128.9013 -315.6789,-128.3086 -315.1529,-127.7251 -314.6295,-127.1508 -314.1089,-126.5855 -313.5912,-126.0292 -313.0764,-125.4819 -312.5646,-124.9436 -312.0559,-124.4141 -311.5504,-123.8935 -311.0481,-123.3817 -310.5492,-122.8786 -310.0537,-122.3842 -309.5616,-121.8985 -309.0732,-121.4214 -309.7413,-118.8789 -309.7413,-118.8789 -310.9458,-116.5423 -311.628,-116.5145 -312.3187,-116.4827 -313.0177,-116.4468 -313.7251,-116.4067 -314.4408,-116.3624 -315.1648,-116.3136 -315.8971,-116.2605 -316.6377,-116.2028 -317.3865,-116.1405 -318.1434,-116.0734 -318.9086,-116.0016 -319.6818,-115.9249 -320.4632,-115.8432 -321.2527,-115.7564 -322.0501,-115.6644 -322.8556,-115.5673 -323.6691,-115.4648 -324.4905,-115.3568 -325.3198,-115.2434 -326.157,-115.1244 -327.002,-114.9997 -327.8549,-114.8692 -328.7154,-114.7329 -329.5837,-114.5907 -330.4597,-114.4424 -331.3433,-114.2881 -332.2346,-114.1275 -333.1334,-113.9607 -334.0397,-113.7875 -334.9535,-113.6079 -335.5508,-113.3123 -337.0614,-108.7366 -336.7574,-108.1435 -336.1302,-107.4551 -335.5051,-106.7764 -334.8823,-106.1072 -334.2618,-105.4476 -333.6438,-104.7975 -333.0282,-104.1569 -332.4153,-103.5256 -331.805,-102.9037 -331.1975,-102.2912 -330.5928,-101.6879 -329.991,-101.0938 -329.3922,-100.5089 -328.7965,-99.9332 -328.204,-99.3665 -327.6147,-98.8089 -327.0287,-98.2602 -326.446,-97.7205 -325.8669,-97.1896 -325.2913,-96.6676 -324.7193,-96.1543 -324.1511,-95.6498 -323.5866,-95.1539 -323.0259,-94.6666 -322.4692,-94.1879 -321.9165,-93.7177 -321.3678,-93.256 -320.8233,-92.8026 -320.2831,-92.3576 -319.7471,-91.9209 -319.2155,-91.4923 -319.6389,-88.8979 -319.6389,-88.8979 -320.6158,-86.4573 -321.2923,-86.3648 -321.9769,-86.2675 -322.6693,-86.1653 -323.3697,-86.0581 -324.078,-85.946 -324.7941,-85.8286 -325.518,-85.7061 -326.2497,-85.5783 -326.9892,-85.4451 -327.7363,-85.3064 -328.4912,-85.1621 -329.2537,-85.0123 -330.0237,-84.8566 -330.8013,-84.6952 -331.5865,-84.5279 -332.3791,-84.3546 -333.1791,-84.1752 -333.9866,-83.9897 -334.8013,-83.798 -335.6234,-83.5999 -336.4528,-83.3954 -337.2893,-83.1845 -338.133,-82.967 -338.9839,-82.7429 -339.8418,-82.512 -340.7068,-82.2744 -341.5787,-82.0298 -342.4576,-81.7783 -343.3433,-81.5198 -344.2359,-81.2541 -344.8024,-80.9031 -345.8712,-76.2045 -345.5122,-75.643 -344.8224,-75.0174 -344.1357,-74.4011 -343.4521,-73.7942 -342.7717,-73.1965 -342.0947,-72.6081 -341.421,-72.0289 -340.7508,-71.4588 -340.0842,-70.8977 -339.4212,-70.3457 -338.7619,-69.8026 -338.1064,-69.2684 -337.4547,-68.7431 -336.807,-68.2266 -336.1632,-67.7188 -335.5236,-67.2197 -334.8881,-66.7292 -334.2568,-66.2473 -333.6298,-65.7739 -333.0072,-65.3089 -332.389,-64.8524 -331.7754,-64.4041 -331.1663,-63.9642 -330.5619,-63.5324 -329.9622,-63.1088 -329.3672,-62.6933 -328.7772,-62.2858 -328.1921,-61.8862 -327.612,-61.4946 -327.0369,-61.1107 -326.467,-60.7347 -326.6419,-58.1117 -326.6419,-58.1117 -327.3823,-55.5893 -328.047,-55.4329 -328.7192,-55.271 -329.3988,-55.1034 -330.0858,-54.9302 -330.7802,-54.7512 -331.4819,-54.5664 -332.1909,-54.3756 -332.9072,-54.1788 -333.6306,-53.9759 -334.3612,-53.7668 -335.0989,-53.5515 -335.8437,-53.3298 -336.5955,-53.1017 -337.3542,-52.867 -338.1199,-52.6258 -338.8925,-52.378 -339.6718,-52.1234 -340.458,-51.862 -341.2508,-51.5936 -342.0504,-51.3183 -342.8565,-51.036 -343.6692,-50.7465 -344.4885,-50.4498 -345.3142,-50.1458 -346.1463,-49.8344 -346.9847,-49.5156 -347.8294,-49.1893 -348.6804,-48.8554 -349.5376,-48.5138 -350.4008,-48.1645 -350.9315,-47.7612 -351.5488,-42.9823 -351.1381,-42.4574 -350.3919,-41.9002 -349.6497,-41.352 -348.9115,-40.8128 -348.1774,-40.2826 -347.4475,-39.7612 -346.7218,-39.2486 -346.0005,-38.7448 -345.2835,-38.2496 -344.5711,-37.7631 -343.8631,-37.2851 -343.1598,-36.8157 -342.4611,-36.3547 -341.7672,-35.9021 -341.0781,-35.4578 -340.3939,-35.0218 -339.7147,-34.5939 -339.0405,-34.1742 -338.3713,-33.7625 -337.7073,-33.3589 -337.0485,-32.9631 -336.3951,-32.5753 -335.7469,-32.1952 -335.1042,-31.8228 -334.4669,-31.4582 -333.8352,-31.1011 -333.2091,-30.7515 -332.5887,-30.4094 -331.9739,-30.0746 -331.365,-29.7472 -330.7619,-29.427 -330.6867,-26.7993 -330.6867,-26.7993 -331.184,-24.218 -331.8308,-23.9991 -332.4845,-23.774 -333.1451,-23.5426 -333.8126,-23.3048 -334.4868,-23.0606 -335.1678,-22.8099 -335.8555,-22.5526 -336.5498,-22.2886 -337.2506,-22.0179 -337.9581,-21.7403 -338.672,-21.4558 -339.3923,-21.1643 -340.119,-20.8658 -340.852,-20.5601 -341.5913,-20.2472 -342.3368,-19.927 -343.0884,-19.5995 -343.8461,-19.2645 -344.6099,-18.9221 -345.3797,-18.572 -346.1553,-18.2143 -346.9368,-17.8488 -347.7242,-17.4756 -348.5172,-17.0945 -349.3159,-16.7054 -350.1203,-16.3084 -350.9302,-15.9032 -351.7456,-15.49 -352.5664,-15.0684 -353.3925,-14.6386 -353.8824,-14.1868 -354.0427,-9.3708 -353.5839,-8.8874 -352.7881,-8.4036 -351.9972,-7.9285 -351.2111,-7.4619 -350.4299,-7.0038 -349.6537,-6.5542 -348.8826,-6.1129 -348.1167,-5.6799 -347.3559,-5.2551 -346.6004,-4.8385 -345.8503,-4.4301 -345.1055,-4.0296 -344.3662,-3.6371 -343.6324,-3.2525 -342.9042,-2.8757 -342.1816,-2.5067 -341.4648,-2.1453 -340.7537,-1.7916 -340.0485,-1.4454 -339.3491,-1.1067 -338.6557,-0.7754 -337.9683,-0.4514 -337.287,-0.1346 -336.6118,0.1749 -335.9427,0.4774 -335.2799,0.7728 -334.6234,1.0613 -333.9733,1.3429 -333.3295,1.6177 -332.6922,1.8858 -332.0614,2.1472 -331.7367,4.7558 -331.7367,4.7558 -331.9865,7.3727 -332.6095,7.6521 -333.2389,7.9383 -333.8745,8.2315 -334.5163,8.5316 -335.1643,8.8388 -335.8184,9.1531 -336.4784,9.4746 -337.1445,9.8034 -337.8165,10.1395 -338.4943,10.4831 -339.1779,10.8342 -339.8673,11.1928 -340.5623,11.5591 -341.263,11.933 -341.9692,12.3148 -342.6808,12.7044 -343.3979,13.1019 -344.1204,13.5074 -344.8481,13.9209 -345.5811,14.3425 -346.3193,14.7724 -347.0625,15.2104 -347.8108,15.6568 -348.564,16.1116 -349.3222,16.5748 -350.0851,17.0465 -350.8528,17.5268 -351.6252,18.0157 -352.4023,18.5134 -353.1838,19.0197 -353.6285,19.5161 -353.3303,24.3255 -352.8277,24.7631 -351.9895,25.1691 -351.157,25.5669 -350.3301,25.9566 -349.5089,26.3384 -348.6935,26.7122 -347.8839,27.0782 -347.0803,27.4364 -346.2826,27.7869 -345.4909,28.1298 -344.7053,28.4652 -343.9259,28.793 -343.1526,29.1135 -342.3856,29.4266 -341.6248,29.7324 -340.8705,30.0311 -340.1225,30.3227 -339.3811,30.6072 -338.6461,30.8848 -337.9177,31.1555 -337.196,31.4194 -336.4809,31.6766 -335.7725,31.9271 -335.0709,32.1711 -334.3762,32.4086 -333.6883,32.6397 -333.0073,32.8645 -332.3334,33.083 -331.6664,33.2954 -331.0065,33.5016 -330.3537,33.7019 -329.7825,36.2679 -329.7825,36.2679 -329.7824,38.8967 -330.3761,39.234 -330.9754,39.5788 -331.5802,39.931 -332.1906,40.2908 -332.8065,40.6581 -333.4277,41.0332 -334.0542,41.416 -334.686,41.8066 -335.323,42.2051 -335.9651,42.6116 -336.6123,43.026 -337.2644,43.4486 -337.9215,43.8792 -338.5834,44.3181 -339.2501,44.7653 -339.9215,45.2207 -340.5976,45.6846 -341.2782,46.1569 -341.9634,46.6377 -342.653,47.1272 -343.3469,47.6252 -344.0451,48.1319 -344.7476,48.6474 -345.4542,49.1717 -346.1649,49.7049 -346.8795,50.247 -347.5981,50.7981 -348.3205,51.3583 -349.0468,51.9275 -349.7766,52.5059 -350.1722,53.0423 -349.4181,57.8015 -348.8761,58.1894 -348.0032,58.5138 -347.1366,58.8307 -346.2764,59.1401 -345.4227,59.4421 -344.5754,59.7367 -343.7347,60.0241 -342.9007,60.3043 -342.0733,60.5774 -341.2526,60.8435 -340.4387,61.1026 -339.6316,61.3549 -338.8314,61.6004 -338.038,61.8391 -337.2517,62.0713 -336.4724,62.2969 -335.7001,62.5161 -334.9349,62.7288 -334.1769,62.9353 -333.4261,63.1355 -332.6825,63.3296 -331.9462,63.5177 -331.2172,63.6998 -330.4956,63.876 -329.7815,64.0464 -329.0747,64.211 -328.3755,64.37 -327.6838,64.5235 -326.9996,64.6715 -326.3231,64.8141 -325.6542,64.9514 -324.8418,67.4515 -324.8418,67.4515 -324.5917,70.0684 -325.1507,70.4606 -325.7145,70.8608 -326.2831,71.2689 -326.8566,71.685 -327.4347,72.1093 -328.0174,72.5417 -328.6048,72.9823 -329.1966,73.4313 -329.7928,73.8885 -330.3933,74.3541 -330.9982,74.8282 -331.6072,75.3108 -332.2203,75.802 -332.8376,76.3018 -333.4587,76.8103 -334.0838,77.3276 -334.7127,77.8536 -335.3454,78.3885 -335.9817,78.9323 -336.6217,79.485 -337.2651,80.0467 -337.9121,80.6176 -338.5623,81.1975 -339.2159,81.7866 -339.8727,82.3849 -340.5326,82.9925 -341.1955,83.6094 -341.8614,84.2357 -342.5302,84.8714 -343.2018,85.5165 -343.5446,86.0881 -342.3415,90.7541 -341.7651,91.0887 -340.8653,91.3287 -339.9725,91.5617 -339.0868,91.788 -338.2082,92.0074 -337.3368,92.2202 -336.4726,92.4263 -335.6157,92.626 -334.7661,92.8192 -333.9238,93.0061 -333.089,93.1867 -332.2616,93.3611 -331.4416,93.5294 -330.6292,93.6917 -329.8243,93.848 -329.0271,93.9986 -328.2375,94.1433 -327.4556,94.2824 -326.6813,94.4159 -325.9149,94.5438 -325.1562,94.6664 -324.4054,94.7836 -323.6624,94.8955 -322.9273,95.0023 -322.2002,95.1041 -321.481,95.2008 -320.7698,95.2926 -320.0667,95.3796 -319.3716,95.4619 -318.6845,95.5396 -318.0056,95.6127 -316.9592,98.0242 -316.9592,98.0242 -316.4615,100.6055 -316.9806,101.0491 -317.5039,101.501 -318.0312,101.9614 -318.5624,102.4301 -319.0976,102.9074 -319.6366,103.3933 -320.1794,103.8877 -320.7258,104.3909 -321.2759,104.9027 -321.8295,105.4233 -322.3865,105.9528 -322.9469,106.4911 -323.5106,107.0383 -324.0775,107.5946 -324.6475,108.1598 -325.2206,108.7341 -325.7967,109.3175 -326.3756,109.9101 -326.9574,110.5119 -327.5419,111.123 -328.1291,111.7434 -328.7188,112.3731 -329.311,113.0122 -329.9056,113.6608 -330.5025,114.3188 -331.1017,114.9864 -331.703,115.6635 -332.3063,116.3502 -332.9117,117.0466 -333.5189,117.7527 -333.8058,118.3542 -332.1646,122.8848 -331.5591,123.1631 -330.6405,123.3165 -329.7296,123.4636 -328.8264,123.6046 -327.9309,123.7395 -327.0433,123.8685 -326.1634,123.9916 -325.2914,124.1089 -324.4272,124.2205 -323.571,124.3264 -322.7228,124.4268 -321.8825,124.5218 -321.0503,124.6114 -320.2261,124.6957 -319.4101,124.7749 -318.6021,124.8489 -317.8023,124.918 -317.0107,124.9821 -316.2273,125.0414 -315.4522,125.0959 -314.6853,125.1458 -313.9267,125.1911 -313.1765,125.2319 -312.4346,125.2684 -311.701,125.3005 -310.9759,125.3284 -310.2592,125.3522 -309.551,125.372 -308.8512,125.3879 -308.1599,125.3999 -307.4771,125.4081 -306.2062,127.7093 -306.2062,127.7093 -305.4654,130.2315 -305.94,130.7225 -306.4179,131.2221 -306.8991,131.7305 -307.3834,132.2476 -307.8707,132.7736 -308.3611,133.3085 -308.8544,133.8523 -309.3506,134.4051 -309.8495,134.9669 -310.3511,135.5378 -310.8553,136.1178 -311.3619,136.707 -311.8711,137.3053 -312.3825,137.9129 -312.8963,138.5298 -313.4122,139.1559 -313.9302,139.7915 -314.4502,140.4364 -314.9721,141.0908 -315.4959,141.7547 -316.0214,142.428 -316.5486,143.111 -317.0773,143.8035 -317.6076,144.5056 -318.1393,145.2174 -318.6723,145.9389 -319.2065,146.6701 -319.7418,147.4111 -320.2782,148.1619 -320.8156,148.9225 -321.044,149.5486 -318.9796,153.9026 -318.3504,154.1221 -317.4214,154.1874 -316.5006,154.2473 -315.5881,154.3018 -314.6839,154.351 -313.7879,154.3951 -312.9003,154.4339 -312.0211,154.4678 -311.1503,154.4967 -310.2879,154.5208 -309.4339,154.5402 -308.5885,154.5548 -307.7515,154.5649 -306.923,154.5705 -306.1031,154.5718 -305.2918,154.5687 -304.4891,154.5614 -303.6949,154.5499 -302.9095,154.5345 -302.1326,154.5151 -301.3645,154.4918 -300.6051,154.4648 -299.8543,154.4342 -299.1123,154.3999 -298.3791,154.3622 -297.6546,154.3211 -296.9388,154.2767 -296.2319,154.229 -295.5338,154.1783 -294.8445,154.1245 -294.164,154.0678 -292.6801,156.2377 -292.6801,156.2377 -291.703,158.6782 -292.1287,159.212 -292.557,159.7548 -292.9876,160.3066 -293.4206,160.8674 -293.8558,161.4374 -294.2931,162.0165 -294.7325,162.6047 -295.1738,163.2022 -295.6171,163.8089 -296.0621,164.4248 -296.5089,165.0501 -296.9573,165.6848 -297.4072,166.3288 -297.8586,166.9823 -298.3113,167.6452 -298.7654,168.3175 -299.2206,168.9995 -299.677,169.6909 -300.1343,170.3919 -300.5926,171.1026 -301.0518,171.8229 -301.5116,172.5528 -301.9722,173.2925 -302.4333,174.0418 -302.8949,174.8009 -303.3569,175.5698 -303.8192,176.3485 -304.2817,177.137 -304.7443,177.9354 -305.207,178.7436 -305.3748,179.3886 -302.9059,183.5267 -302.2586,183.6853 -301.3276,183.6621 -300.4053,183.6342 -299.4918,183.6017 -298.5869,183.5647 -297.6909,183.5234 -296.8036,183.4777 -295.9252,183.4279 -295.0555,183.3739 -294.1947,183.3159 -293.3428,183.254 -292.4998,183.1882 -291.6656,183.1187 -290.8404,183.0455 -290.0241,182.9688 -289.2167,182.8886 -288.4183,182.805 -287.6289,182.7182 -286.8484,182.6281 -286.077,182.535 -285.3145,182.4388 -284.5611,182.3397 -283.8167,182.2378 -283.0813,182.1332 -282.3549,182.026 -281.6376,181.9162 -280.9294,181.8039 -280.2302,181.6893 -279.54,181.5724 -278.859,181.4534 -278.187,181.3322 -276.5035,183.3513 -276.5035,183.3513 -275.2988,185.6878 -275.6719,186.2597 -276.0466,186.8407 -276.4228,187.4309 -276.8005,188.0304 -277.1796,188.6391 -277.5598,189.2572 -277.9413,189.8845 -278.3239,190.5212 -278.7075,191.1673 -279.0919,191.8228 -279.4772,192.4877 -279.8633,193.1621 -280.2499,193.846 -280.6372,194.5394 -281.0249,195.2423 -281.413,195.9548 -281.8013,196.6769 -282.1899,197.4086 -282.5785,198.15 -282.9672,198.901 -283.3558,199.6616 -283.7442,200.432 -284.1323,201.2121 -284.5201,202.0019 -284.9075,202.8014 -285.2943,203.6107 -285.6805,204.4298 -286.0659,205.2587 -286.4506,206.0975 -286.8343,206.946 -286.9401,207.604 -284.089,211.4887 -283.4296,211.5851 -282.505,211.4735 -281.5895,211.358 -280.6832,211.2388 -279.786,211.116 -278.8979,210.9897 -278.019,210.8599 -277.1493,210.7268 -276.2887,210.5904 -275.4373,210.4508 -274.5951,210.3082 -273.7622,210.1626 -272.9384,210.0141 -272.1239,209.8628 -271.3186,209.7088 -270.5225,209.5523 -269.7356,209.3932 -268.958,209.2317 -268.1897,209.0678 -267.4305,208.9018 -266.6807,208.7336 -265.9401,208.5633 -265.2087,208.3911 -264.4866,208.2171 -263.7737,208.0413 -263.0701,207.8638 -262.3757,207.6847 -261.6906,207.5042 -261.0147,207.3222 -260.348,207.139 -259.6906,206.9545 -257.8228,208.8044 -257.8228,208.8044 -256.4015,211.0158 -256.7185,211.6205 -257.0363,212.2346 -257.3547,212.8579 -257.6737,213.4906 -257.9932,214.1326 -258.313,214.7839 -258.6331,215.4447 -258.9534,216.1149 -259.2738,216.7945 -259.5943,217.4836 -259.9146,218.1821 -260.2348,218.8902 -260.5547,219.6077 -260.8743,220.3348 -261.1934,221.0714 -261.512,221.8175 -261.83,222.5733 -262.1472,223.3386 -262.4636,224.1135 -262.7792,224.8981 -263.0937,225.6922 -263.4071,226.496 -263.7194,227.3095 -264.0303,228.1325 -264.3399,228.9653 -264.648,229.8077 -264.9546,230.6598 -265.2595,231.5216 -265.5627,232.3931 -265.864,233.2743 -265.9068,233.9394 -262.6993,237.5354 -262.0337,237.5687 -261.124,237.3697 -260.2236,237.1678 -259.3327,236.963 -258.4512,236.7554 -257.5792,236.5452 -256.7166,236.3325 -255.8635,236.1173 -255.0198,235.8997 -254.1855,235.6799 -253.3607,235.4578 -252.5453,235.2337 -251.7394,235.0076 -250.9429,234.7796 -250.1559,234.5497 -249.3783,234.3182 -248.6102,234.085 -247.8514,233.8503 -247.1021,233.6142 -246.3622,233.3767 -245.6317,233.138 -244.9107,232.8982 -244.199,232.6572 -243.4967,232.4153 -242.8037,232.1725 -242.1202,231.929 -241.446,231.6847 -240.7811,231.4398 -240.1256,231.1945 -239.4793,230.9487 -238.8424,230.7026 -236.8073,232.3665 -236.8073,232.3665 -235.1821,234.4328 -235.4403,235.0649 -235.6982,235.7064 -235.956,236.3572 -236.2134,237.0173 -236.4704,237.6868 -236.7268,238.3656 -236.9827,239.0538 -237.2378,239.7514 -237.4922,240.4584 -237.7457,241.1748 -237.9982,241.9006 -238.2496,242.6359 -238.4999,243.3806 -238.7489,244.1348 -238.9965,244.8984 -239.2428,245.6714 -239.4874,246.454 -239.7305,247.246 -239.9718,248.0475 -240.2113,248.8585 -240.449,249.6789 -240.6846,250.5089 -240.9181,251.3483 -241.1494,252.1972 -241.3784,253.0556 -241.6051,253.9235 -241.8293,254.8009 -242.0509,255.6878 -242.2698,256.5841 -242.486,257.49 -242.4654,258.1561 -238.9306,261.431 -238.2649,261.4009 -237.3781,261.1163 -236.5011,260.8297 -235.6337,260.5411 -234.7759,260.2507 -233.9278,259.9586 -233.0893,259.6648 -232.2605,259.3695 -231.4413,259.0727 -230.6317,258.7745 -229.8318,258.4751 -229.0414,258.1745 -228.2606,257.8728 -227.4894,257.5701 -226.7278,257.2665 -225.9757,256.9621 -225.2332,256.657 -224.5002,256.3512 -223.7768,256.0449 -223.0628,255.7382 -222.3583,255.4311 -221.6633,255.1238 -220.9777,254.8163 -220.3016,254.5088 -219.6349,254.2012 -218.9776,253.8938 -218.3297,253.5865 -217.6911,253.2796 -217.0618,252.973 -216.4419,252.6669 -215.8312,252.3613 -213.6471,253.8243 -213.6471,253.8243 -211.833,255.7267 -212.0298,256.3806 -212.2257,257.0437 -212.4204,257.716 -212.6139,258.3976 -212.806,259.0884 -212.9968,259.7886 -213.1861,260.498 -213.3738,261.2167 -213.5598,261.9446 -213.744,262.6819 -213.9264,263.4285 -214.1068,264.1843 -214.2851,264.9494 -214.4613,265.7238 -214.6353,266.5075 -214.8069,267.3005 -214.9761,268.1027 -215.1428,268.9143 -215.3068,269.7351 -215.4682,270.5651 -215.6267,271.4045 -215.7823,272.2531 -215.935,273.1109 -216.0846,273.978 -216.231,274.8543 -216.3741,275.7398 -216.5139,276.6345 -216.6502,277.5384 -216.7829,278.4515 -216.9121,279.3738 -216.8282,280.035 -212.9981,282.959 -212.3383,282.8658 -211.4826,282.4982 -210.6367,282.1295 -209.8007,281.7598 -208.9744,281.3892 -208.1579,281.0177 -207.3512,280.6456 -206.5542,280.2728 -205.7669,279.8995 -204.9893,279.5257 -204.2214,279.1516 -203.4632,278.7772 -202.7147,278.4027 -201.9757,278.028 -201.2464,277.6534 -200.5267,277.2789 -199.8166,276.9046 -199.116,276.5305 -198.4249,276.1569 -197.7433,275.7837 -197.0712,275.411 -196.4085,275.039 -195.7553,274.6678 -195.1115,274.2973 -194.477,273.9278 -193.8519,273.5593 -193.2361,273.1918 -192.6296,272.8255 -192.0323,272.4605 -191.4443,272.0969 -190.8655,271.7347 -188.5522,272.9834 -188.5522,272.9834 -186.5654,274.7048 -186.6992,275.3744 -186.8311,276.0531 -186.9611,276.7409 -187.0889,277.4378 -187.2145,278.1438 -187.3379,278.8589 -187.4589,279.5831 -187.5774,280.3163 -187.6934,281.0587 -187.8067,281.8101 -187.9172,282.5706 -188.025,283.3402 -188.1298,284.1188 -188.2316,284.9064 -188.3302,285.7031 -188.4257,286.5088 -188.5179,287.3235 -188.6066,288.1472 -188.6919,288.9799 -188.7736,289.8216 -188.8517,290.6722 -188.926,291.5317 -188.9964,292.4001 -189.0629,293.2775 -189.1253,294.1638 -189.1836,295.0589 -189.2377,295.9628 -189.2875,296.8756 -189.3328,297.7972 -189.3737,298.7276 -189.2273,299.3778 -185.1367,301.9245 -184.4887,301.769 -183.6718,301.3217 -182.8649,300.8743 -182.0677,300.4268 -181.2804,299.9793 -180.5029,299.5319 -179.7352,299.0848 -178.9773,298.6379 -178.229,298.1915 -177.4905,297.7455 -176.7617,297.3001 -176.0425,296.8553 -175.3329,296.4113 -174.6329,295.9681 -173.9425,295.5259 -173.2617,295.0846 -172.5903,294.6445 -171.9284,294.2056 -171.276,293.7679 -170.633,293.3316 -169.9994,292.8968 -169.3751,292.4635 -168.7601,292.0318 -168.1544,291.6018 -167.5579,291.1736 -166.9707,290.7474 -166.3926,290.323 -165.8236,289.9008 -165.2638,289.4807 -164.713,289.0628 -164.1712,288.6472 -161.7497,289.6704 -161.7497,289.6704 -159.6083,291.1951 -159.6778,291.8744 -159.7446,292.5625 -159.8086,293.2595 -159.8696,293.9654 -159.9276,294.6802 -159.9824,295.4038 -160.034,296.1362 -160.0823,296.8774 -160.1271,297.6274 -160.1685,298.3862 -160.2063,299.1538 -160.2404,299.9301 -160.2707,300.7152 -160.2972,301.5089 -160.3197,302.3114 -160.3381,303.1225 -160.3524,303.9423 -160.3625,304.7707 -160.3682,305.6077 -160.3696,306.4533 -160.3664,307.3075 -160.3586,308.1702 -160.3462,309.0414 -160.329,309.9211 -160.3069,310.8093 -160.2799,311.7059 -160.2478,312.6109 -160.2105,313.5243 -160.1681,314.446 -160.1203,315.376 -159.9128,316.0094 -155.5986,318.1558 -154.9683,317.9393 -154.1977,317.4164 -153.4369,316.8943 -152.6859,316.373 -151.9447,315.8528 -151.2133,315.3335 -150.4915,314.8154 -149.7795,314.2986 -149.0771,313.783 -148.3843,313.2688 -147.7011,312.7561 -147.0274,312.245 -146.3633,311.7356 -145.7086,311.2279 -145.0634,310.722 -144.4276,310.218 -143.8011,309.7161 -143.1839,309.2162 -142.576,308.7185 -141.9774,308.2231 -141.388,307.73 -140.8077,307.2393 -140.2365,306.7511 -139.6745,306.2655 -139.1214,305.7826 -138.5773,305.3024 -138.0422,304.8251 -137.516,304.3506 -136.9986,303.8792 -136.49,303.4108 -135.9902,302.9456 -133.4824,303.734 -133.4824,303.734 -131.2057,305.0483 -131.2104,305.7311 -131.2115,306.4225 -131.2089,307.1224 -131.2025,307.8309 -131.1923,308.5479 -131.1781,309.2734 -131.1598,310.0074 -131.1374,310.7499 -131.1108,311.5008 -131.0798,312.2601 -131.0445,313.0278 -131.0046,313.8038 -130.9602,314.5882 -130.9111,315.3809 -130.8572,316.1818 -130.7985,316.991 -130.7348,317.8085 -130.6661,318.6341 -130.5922,319.4679 -130.5132,320.3098 -130.4288,321.1597 -130.3391,322.0178 -130.2439,322.8839 -130.1431,323.758 -130.0367,324.64 -129.9246,325.53 -129.8066,326.4279 -129.6827,327.3336 -129.5529,328.2471 -129.4169,329.1684 -129.1501,329.7791 -124.6514,331.5057 -124.0446,331.2303 -123.3271,330.6365 -122.6194,330.0445 -121.9214,329.4542 -121.233,328.8658 -120.5542,328.2794 -119.885,327.6951 -119.2253,327.1128 -118.5751,326.5328 -117.9343,325.9551 -117.3029,325.3798 -116.6809,324.807 -116.0682,324.2367 -115.4648,323.6691 -114.8705,323.1042 -114.2855,322.5421 -113.7095,321.9828 -113.1427,321.4266 -112.5849,320.8733 -112.0361,320.3232 -111.4962,319.7763 -110.9652,319.2327 -110.443,318.6924 -109.9296,318.1556 -109.425,317.6223 -108.929,317.0926 -108.4417,316.5665 -107.9629,316.0442 -107.4927,315.5257 -107.0309,315.0112 -106.5776,314.5005 -104.0062,315.047 -104.0062,315.047 -101.6149,316.1389 -101.5547,316.819 -101.49,317.5074 -101.4209,318.2039 -101.3472,318.9086 -101.2689,319.6214 -101.1858,320.3423 -101.0978,321.0712 -101.0049,321.8082 -100.9071,322.5532 -100.8041,323.3061 -100.6959,324.0669 -100.5825,324.8357 -100.4637,325.6123 -100.3394,326.3967 -100.2097,327.1889 -100.0743,327.9889 -99.9332,328.7965 -99.7863,329.6119 -99.6335,330.4349 -99.4748,331.2654 -99.3101,332.1036 -99.1392,332.9492 -98.9621,333.8023 -98.7787,334.6629 -98.5889,335.5308 -98.3927,336.4061 -98.1899,337.2887 -97.9805,338.1785 -97.7644,339.0755 -97.5414,339.9798 -97.2178,340.5624 -92.5754,341.8535 -91.9974,341.5217 -91.3397,340.8624 -90.6915,340.2057 -90.0527,339.5518 -89.4234,338.9006 -88.8034,338.2523 -88.1928,337.607 -87.5914,336.9647 -86.9993,336.3256 -86.4163,335.6896 -85.8425,335.0569 -85.2777,334.4275 -84.722,333.8016 -84.1752,333.1791 -83.6374,332.5603 -83.1084,331.9451 -82.5882,331.3337 -82.0768,330.726 -81.5741,330.1223 -81.0801,329.5225 -80.5946,328.9267 -80.1177,328.3351 -79.6493,327.7476 -79.1892,327.1644 -78.7376,326.5856 -78.2942,326.0111 -77.8591,325.4411 -77.4321,324.8757 -77.0133,324.3148 -76.6026,323.7587 -76.1998,323.2073 -73.5881,323.5068 -73.5881,323.5068 -71.1039,324.3665 -70.9792,325.0378 -70.8495,325.7169 -70.7145,326.4037 -70.5741,327.0982 -70.4284,327.8004 -70.2771,328.5101 -70.1203,329.2274 -69.9578,329.9522 -69.7895,330.6844 -69.6154,331.4242 -69.4354,332.1713 -69.2494,332.9258 -69.0574,333.6876 -68.8591,334.4566 -68.6546,335.2329 -68.4438,336.0164 -68.2266,336.807 -68.0029,337.6047 -67.7726,338.4094 -67.5356,339.2211 -67.2919,340.0398 -67.0414,340.8654 -66.784,341.6978 -66.5197,342.537 -66.2483,343.383 -65.9697,344.2356 -65.6839,345.0949 -65.3909,345.9608 -65.0905,346.8333 -64.7826,347.7122 -64.4051,348.2614 -59.661,349.1054 -59.1172,348.7201 -58.5251,348.0013 -57.9422,347.286 -57.3685,346.5743 -56.8039,345.8663 -56.2484,345.162 -55.7018,344.4616 -55.1642,343.765 -54.6355,343.0725 -54.1157,342.3839 -53.6046,341.6995 -53.1022,341.0193 -52.6085,340.3434 -52.1234,339.6718 -51.6468,339.0047 -51.1787,338.342 -50.719,337.6839 -50.2677,337.0304 -49.8247,336.3816 -49.3899,335.7375 -48.9632,335.0983 -48.5447,334.464 -48.1342,333.8347 -47.7317,333.2104 -47.3371,332.5913 -46.9503,331.9773 -46.5714,331.3685 -46.2001,330.765 -45.8365,330.1669 -45.4805,329.5742 -45.132,328.987 -42.5036,329.037 -42.5036,329.037 -39.9489,329.6566 -39.761,330.313 -39.5673,330.9767 -39.3676,331.6476 -39.1619,332.3256 -38.9501,333.0107 -38.732,333.7028 -38.5077,334.402 -38.2771,335.108 -38.04,335.821 -37.7963,336.5408 -37.5461,337.2675 -37.2893,338.0008 -37.0257,338.7409 -36.7552,339.4876 -36.4778,340.241 -36.1935,341.0009 -35.9021,341.7672 -35.6036,342.54 -35.2978,343.3192 -34.9848,344.1048 -34.6644,344.8966 -34.3365,345.6946 -34.0012,346.4988 -33.6582,347.3091 -33.3076,348.1254 -32.9493,348.9477 -32.5832,349.776 -32.2091,350.6101 -31.8272,351.45 -31.4372,352.2957 -31.0091,352.8066 -26.2062,353.1958 -25.7015,352.7605 -25.1804,351.9887 -24.6682,351.2212 -24.1647,350.4582 -23.67,349.6997 -23.1839,348.9458 -22.7064,348.1966 -22.2375,347.4521 -21.777,346.7124 -21.325,345.9776 -20.8813,345.2477 -20.4458,344.5229 -20.0186,343.8031 -19.5995,343.0884 -19.1885,342.379 -18.7855,341.6748 -18.3905,340.9759 -18.0033,340.2825 -17.6239,339.5945 -17.2523,338.9121 -16.8884,338.2352 -16.5321,337.564 -16.1832,336.8985 -15.8419,336.2388 -15.5079,335.5849 -15.1813,334.9369 -14.8619,334.2949 -14.5497,333.6589 -14.2446,333.0289 -13.9465,332.4051 -13.6554,331.7874 -11.0342,331.5873 -11.0342,331.5873 -8.4322,331.9612 -8.1827,332.5969 -7.9268,333.2392 -7.6642,333.888 -7.395,334.5434 -7.119,335.2052 -6.8362,335.8735 -6.5464,336.5481 -6.2497,337.2291 -5.9459,337.9163 -5.635,338.6097 -5.3168,339.3093 -4.9914,340.0149 -4.6586,340.7266 -4.3184,341.4442 -3.9707,342.1678 -3.6154,342.8972 -3.2525,343.6324 -2.8819,344.3733 -2.5034,345.1199 -2.1171,345.8721 -1.7229,346.6299 -1.3207,347.3932 -0.9104,348.1618 -0.492,348.9358 -0.0654,349.7152 0.3695,350.4997 0.8127,351.2894 1.2643,352.0842 1.7244,352.884 2.193,353.6888 2.6677,354.1566 7.4858,354.0875 7.9469,353.6063 8.3922,352.7884 8.8292,351.9757 9.2579,351.1683 9.6783,350.3662 10.0905,349.5696 10.4946,348.7783 10.8906,347.9926 11.2787,347.2125 11.6589,346.4381 12.0312,345.6693 12.3958,344.9063 12.7526,344.1492 13.1019,343.3979 13.4436,342.6526 13.7778,341.9133 14.1046,341.1801 14.4241,340.453 14.7364,339.7321 15.0414,339.0174 15.3394,338.309 15.6303,337.607 15.9143,336.9114 16.1914,336.2222 16.4617,335.5395 16.7252,334.8634 16.9821,334.1939 17.2325,333.5311 17.4763,332.875 17.7138,332.2256 17.9448,331.5831 20.5351,331.1347 20.5351,331.1347 23.1609,331.2596 23.4697,331.8687 23.7855,332.4837 24.1085,333.1047 24.4389,333.7315 24.7765,334.3641 25.1216,335.0025 25.4742,335.6465 25.8343,336.2962 26.202,336.9514 26.5774,337.6121 26.9606,338.2782 27.3517,338.9498 27.7506,339.6266 28.1575,340.3086 28.5724,340.9959 28.9954,341.6882 29.4266,342.3856 29.866,343.0879 30.3137,343.7952 30.7697,344.5073 31.2342,345.2241 31.7071,345.9457 32.1886,346.6719 32.6787,347.4026 33.1774,348.1378 33.6849,348.8775 34.2012,349.6215 34.7263,350.3697 35.2604,351.1222 35.8034,351.8788 36.3203,352.2994 41.1101,351.7726 41.5233,351.2497 41.8889,350.3932 42.2466,349.5427 42.5966,348.6982 42.9389,347.8598 43.2735,347.0275 43.6005,346.2015 43.9201,345.3817 44.2323,344.5682 44.5371,343.7611 44.8347,342.9605 45.1251,342.1663 45.4083,341.3786 45.6846,340.5976 45.9539,339.8232 46.2163,339.0555 46.472,338.2945 46.7209,337.5403 46.9632,336.793 47.199,336.0525 47.4282,335.319 47.6511,334.5925 47.8677,333.873 48.078,333.1606 48.2822,332.4554 48.4803,331.7573 48.6724,331.0664 48.8586,330.3828 49.039,329.7065 49.2136,329.0375 49.3826,328.3759 51.9185,327.6833 51.9185,327.6833 54.5443,327.5581 54.9095,328.135 55.2824,328.7172 55.663,329.3047 56.0514,329.8973 56.4477,330.4949 56.8518,331.0976 57.264,331.7052 57.6843,332.3177 58.1126,332.935 58.5492,333.557 58.994,334.1837 59.447,334.815 59.9085,335.4509 60.3784,336.0911 60.8567,336.7358 61.3436,337.3848 61.8391,338.038 62.3433,338.6954 62.8562,339.3569 63.3779,340.0225 63.9084,340.6919 64.4477,341.3653 64.9961,342.0424 65.5534,342.7232 66.1198,343.4077 66.6953,344.0958 67.28,344.7873 67.8738,345.4823 68.477,346.1806 69.0894,346.8821 69.6441,347.2517 74.3621,346.272 74.7237,345.7122 75.0062,344.8248 75.2815,343.9441 75.5496,343.0702 75.8106,342.203 76.0646,341.3427 76.3116,340.4893 76.5518,339.6429 76.7853,338.8034 77.012,337.971 77.2321,337.1457 77.4457,336.3275 77.6528,335.5165 77.8536,334.7127 78.0481,333.9162 78.2363,333.127 78.4185,332.3452 78.5946,331.5708 78.7648,330.8038 78.9291,330.0443 79.0876,329.2923 79.2404,328.5479 79.3876,327.8111 79.5292,327.082 79.6654,326.3605 79.7963,325.6467 79.9219,324.9407 80.0422,324.2425 80.1575,323.5521 80.2678,322.8695 80.3731,322.1949 82.8317,321.2644 82.8317,321.2644 85.4337,320.8901 85.8521,321.4297 86.2786,321.9739 86.7133,322.5225 87.1563,323.0754 87.6076,323.6327 88.0672,324.1942 88.5353,324.7599 89.0119,325.3297 89.497,325.9035 89.9907,326.4812 90.493,327.0628 91.0041,327.6482 91.5239,328.2372 92.0525,328.83 92.5899,329.4263 93.1363,330.026 93.6917,330.6292 94.2561,331.2357 94.8295,331.8454 95.4121,332.4584 96.0038,333.0744 96.6048,333.6934 97.215,334.3153 97.8345,334.9401 98.4634,335.5677 99.1017,336.1979 99.7494,336.8307 100.4067,337.4661 101.0735,338.1039 101.7498,338.7441 102.3371,339.0592 106.9406,337.6355 107.2474,337.0439 107.4443,336.1336 107.6346,335.2308 107.8184,334.3353 107.9958,333.4473 108.1669,332.5667 108.3317,331.6937 108.4903,330.8283 108.6429,329.9704 108.7895,329.1202 108.9301,328.2777 109.065,327.4429 109.1941,326.6159 109.3175,325.7967 109.4354,324.9853 109.5478,324.1818 109.6548,323.3862 109.7565,322.5985 109.853,321.8188 109.9444,321.0472 110.0307,320.2835 110.1121,319.528 110.1885,318.7805 110.2602,318.0412 110.3272,317.31 110.3897,316.587 110.4475,315.8723 110.501,315.1658 110.5501,314.4676 110.595,313.7776 110.6357,313.096 112.9947,311.936 112.9947,311.936 115.5494,311.3161 116.0172,311.8135 116.4935,312.3146 116.9784,312.8194 117.4719,313.3278 117.9741,313.8397 118.4851,314.3549 119.0048,314.8736 119.5334,315.3955 120.0708,315.9205 120.6172,316.4487 121.1725,316.9799 121.7369,317.5141 122.3104,318.0511 122.8929,318.5909 123.4846,319.1334 124.0856,319.6785 124.6957,320.2261 125.3152,320.7762 125.944,321.3287 126.5822,321.8835 127.2298,322.4404 127.8869,322.9995 128.5535,323.5606 129.2296,324.1237 129.9153,324.6886 130.6106,325.2554 131.3156,325.8238 132.0302,326.3938 132.7546,326.9653 133.4888,327.5383 134.1033,327.7962 138.5506,325.9413 138.7998,325.3232 138.9093,324.3984 139.0129,323.4815 139.1108,322.5726 139.203,321.6717 139.2895,320.7789 139.3706,319.8942 139.4463,319.0176 139.5166,318.1491 139.5817,317.2888 139.6417,316.4368 139.6966,315.5929 139.7465,314.7574 139.7915,313.9302 139.8317,313.1112 139.8672,312.3007 139.8981,311.4985 139.9245,310.7047 139.9464,309.9194 139.964,309.1426 139.9774,308.3742 139.9865,307.6143 139.9916,306.863 139.9927,306.1202 139.9899,305.3859 139.9833,304.6603 139.973,303.9433 139.9591,303.2349 139.9416,302.5352 139.9207,301.8441 139.8964,301.1617 142.1345,299.7827 142.1345,299.7827 144.6186,298.9228 145.1316,299.3735 145.6534,299.827 146.1841,300.2835 146.7237,300.7426 147.2723,301.2044 147.8299,301.6688 148.3966,302.1357 148.9724,302.6049 149.5573,303.0766 150.1514,303.5504 150.7547,304.0264 151.3673,304.5045 151.9892,304.9846 152.6204,305.4665 153.261,305.9503 153.9111,306.4359 154.5705,306.923 155.2395,307.4118 155.918,307.902 156.606,308.3936 157.3036,308.8864 158.0109,309.3805 158.7278,309.8757 159.4543,310.372 160.1906,310.8692 160.9367,311.3672 161.6925,311.8661 162.4581,312.3656 163.2335,312.8656 164.0188,313.3662 164.6551,313.5646 168.906,311.2954 169.0952,310.6563 169.1163,309.7253 169.1323,308.8027 169.1433,307.8887 169.1495,306.9831 169.1508,306.0861 169.1474,305.1977 169.1394,304.3178 169.1269,303.4466 169.1099,302.584 169.0886,301.7301 169.063,300.8849 169.0333,300.0484 168.9995,299.2206 168.9617,298.4016 168.92,297.5913 168.8745,296.7899 168.8253,295.9972 168.7725,295.2133 168.7161,294.4383 168.6564,293.6721 168.5932,292.9148 168.5269,292.1664 168.4574,291.4269 168.3848,290.6962 168.3093,289.9745 168.2308,289.2617 168.1496,288.5579 168.0657,287.863 167.9792,287.177 167.8902,286.5 169.987,284.9145 169.987,284.9145 172.3782,283.8223 172.9317,284.2222 173.4942,284.6242 174.0659,285.0281 174.6467,285.4338 175.2367,285.8414 175.836,286.2507 176.4445,286.6616 177.0622,287.074 177.6893,287.4879 178.3258,287.9031 178.9716,288.3196 179.6269,288.7373 180.2916,289.1561 180.9658,289.5759 181.6495,289.9966 182.3427,290.4181 183.0455,290.8404 183.7579,291.2633 184.4799,291.6868 185.2116,292.1108 185.9529,292.5351 186.7039,292.9597 187.4646,293.3846 188.235,293.8095 189.0153,294.2345 189.8053,294.6594 190.6051,295.0841 191.4147,295.5085 192.2342,295.9326 193.0635,296.3563 193.7157,296.4932 197.7317,293.8303 197.8593,293.1761 197.7918,292.2473 197.72,291.3274 197.6441,290.4164 197.5642,289.5144 197.4802,288.6213 197.3924,287.7372 197.3008,286.8621 197.2055,285.996 197.1066,285.139 197.0042,284.291 196.8984,283.452 196.7893,282.6221 196.6769,281.8013 196.5615,280.9896 196.4429,280.187 196.3215,279.3934 196.1971,278.609 196.0701,277.8337 195.9403,277.0676 195.808,276.3106 195.6732,275.5627 195.536,274.824 195.3965,274.0944 195.2548,273.374 195.111,272.6627 194.9651,271.9606 194.8174,271.2676 194.6678,270.5838 194.5165,269.9092 194.3635,269.2437 196.3002,267.4661 196.3002,267.4661 198.5767,266.1516 199.1657,266.4971 199.7639,266.8437 200.3714,267.1914 200.9881,267.5402 201.6142,267.8898 202.2496,268.2402 202.8944,268.5914 203.5486,268.9433 204.2122,269.2957 204.8853,269.6485 205.5678,270.0017 206.2598,270.3553 206.9613,270.709 207.6723,271.0628 208.3929,271.4166 209.1231,271.7703 209.8628,272.1239 210.6122,272.4772 211.3712,272.8301 212.1398,273.1826 212.9181,273.5345 213.7061,273.8859 214.5037,274.2365 215.3111,274.5862 216.1282,274.9351 216.955,275.283 217.7915,275.6297 218.6378,275.9753 219.4939,276.3196 220.3597,276.6625 221.022,276.7369 224.7667,273.7042 224.8316,273.0409 224.6761,272.1227 224.5172,271.2138 224.355,270.3141 224.1897,269.4238 224.0212,268.5427 223.8497,267.671 223.6754,266.8086 223.4982,265.9555 223.3183,265.1117 223.1357,264.2772 222.9507,263.4521 222.7632,262.6364 222.5733,261.83 222.3812,261.0329 222.1869,260.2452 221.9905,259.4668 221.7922,258.6977 221.592,257.938 221.39,257.1877 221.1863,256.4467 220.981,255.715 220.7742,254.9927 220.566,254.2796 220.3565,253.5759 220.1457,252.8816 219.9338,252.1965 219.7209,251.5207 219.507,250.8543 219.2922,250.1971 219.0767,249.5492 220.8356,247.5955 220.8356,247.5955 222.9768,246.0705 223.596,246.3584 224.2245,246.6466 224.8622,246.935 225.5094,247.2236 226.1658,247.5121 226.8317,247.8006 227.5069,248.0889 228.1916,248.377 228.8857,248.6647 229.5892,248.9519 230.3022,249.2387 231.0247,249.5248 231.7567,249.8102 232.4981,250.0949 233.2491,250.3786 234.0095,250.6613 234.7796,250.9429 235.5591,251.2234 236.3482,251.5026 237.1469,251.7804 237.9551,252.0568 238.7729,252.3316 239.6003,252.6048 240.4372,252.8763 241.2838,253.1459 242.1399,253.4136 243.0056,253.6793 243.8809,253.9428 244.7659,254.2042 245.6604,254.4632 246.3267,254.4743 249.7661,251.0994 249.7677,250.433 249.5256,249.5337 249.2811,248.644 249.0341,247.7638 248.7849,246.8932 248.5334,246.0322 248.2799,245.1807 248.0243,244.3387 247.7668,243.5063 247.5075,242.6835 247.2465,241.8702 246.9838,241.0664 246.7196,240.2722 246.454,239.4874 246.187,238.7122 245.9187,237.9465 245.6492,237.1903 245.3787,236.4436 245.1072,235.7064 244.8348,234.9787 244.5616,234.2604 244.2877,233.5515 244.0132,232.8521 243.7381,232.1621 243.4626,231.4815 243.1868,230.8103 242.9107,230.1485 242.6345,229.496 242.3582,228.8529 242.082,228.2191 241.8058,227.5946 243.3711,225.4826 243.3711,225.4826 245.3577,223.761 246.0014,223.9887 246.6544,224.2159 247.3167,224.4424 247.9883,224.6681 248.6693,224.8929 249.3595,225.1168 250.0591,225.3396 250.7681,225.5613 251.4864,225.7817 252.214,226.0008 252.9511,226.2185 253.6974,226.4347 254.4532,226.6492 255.2184,226.8621 255.9929,227.0731 256.7768,227.2823 257.5701,227.4894 258.3728,227.6945 259.1849,227.8975 260.0063,228.0981 260.8371,228.2964 261.6774,228.4923 262.5269,228.6856 263.3859,228.8762 264.2543,229.0642 265.132,229.2493 266.019,229.4314 266.9154,229.6106 267.8212,229.7867 268.7363,229.9595 269.4007,229.9072 272.5037,226.2206 272.4419,225.557 272.1154,224.6849 271.7874,223.8224 271.4579,222.9697 271.127,222.1268 270.7949,221.2935 270.4616,220.47 270.1271,219.6561 269.7917,218.852 269.4553,218.0575 269.1182,217.2727 268.7803,216.4975 268.4418,215.732 268.1027,214.9761 267.7633,214.2298 267.4234,213.493 267.0833,212.7659 266.743,212.0483 266.4027,211.3402 266.0623,210.6416 265.7221,209.9526 265.382,209.273 265.0422,208.6028 264.7029,207.9421 264.3639,207.2908 264.0256,206.6488 263.6878,206.0162 263.3508,205.393 263.0147,204.779 262.6794,204.1744 262.3452,203.5789 263.7026,201.3277 263.7026,201.3277 265.5165,199.4251 266.179,199.5906 266.8506,199.7547 267.5314,199.9172 268.2215,200.078 268.9207,200.2371 269.6291,200.3943 270.3467,200.5496 271.0735,200.7029 271.8095,200.8541 272.5547,201.003 273.3091,201.1496 274.0727,201.2939 274.8454,201.4356 275.6273,201.5748 276.4184,201.7112 277.2187,201.8449 278.028,201.9757 278.8466,202.1036 279.6743,202.2284 280.5111,202.3501 281.357,202.4685 282.212,202.5836 283.0761,202.6953 283.9493,202.8034 284.8316,202.908 285.7229,203.0088 286.6233,203.1058 287.5327,203.199 288.4511,203.2881 289.3785,203.3732 290.0349,203.258 292.7734,199.2932 292.6488,198.6385 292.2409,197.8013 291.8324,196.9739 291.4234,196.1564 291.0139,195.3487 290.604,194.5508 290.1939,193.7627 289.7836,192.9843 289.3733,192.2157 288.9629,191.4568 288.5527,190.7076 288.1426,189.968 287.7329,189.2381 287.3235,188.5179 286.9146,187.8072 286.5063,187.1061 286.0986,186.4146 285.6916,185.7326 285.2855,185.0601 284.8803,184.397 284.4761,183.7434 284.073,183.0992 283.6711,182.4644 283.2704,181.8389 282.8711,181.2227 282.4733,180.6159 282.0769,180.0183 281.6822,179.4299 281.2892,178.8506 280.898,178.2806 280.5087,177.7196 281.6459,175.3496 281.6459,175.3496 283.2708,173.2831 283.946,173.3849 284.6302,173.4844 285.3234,173.5814 286.0256,173.676 286.7367,173.7679 287.4569,173.857 288.186,173.9434 288.9241,174.0269 289.6712,174.1074 290.4271,174.1849 291.192,174.2591 291.9658,174.3301 292.7486,174.3978 293.5402,174.462 294.3406,174.5226 295.15,174.5796 295.9681,174.6329 296.7951,174.6824 297.6309,174.728 298.4755,174.7696 299.3288,174.807 300.1909,174.8403 301.0618,174.8694 301.9413,174.894 302.8295,174.9142 303.7264,174.9299 304.6319,174.9409 305.546,174.9472 306.4687,174.9486 307.4,174.9452 308.0425,174.768 310.3917,170.5609 310.2055,169.921 309.7198,169.1263 309.2345,168.3416 308.7496,167.5666 308.2652,166.8015 307.7814,166.0462 307.2982,165.3006 306.8158,164.5648 306.3342,163.8386 305.8536,163.1222 305.374,162.4153 304.8955,161.7181 304.4183,161.0305 303.9423,160.3524 303.4677,159.6838 302.9945,159.0247 302.523,158.3751 302.053,157.7348 301.5848,157.104 301.1184,156.4824 300.6539,155.8702 300.1914,155.2672 299.7309,154.6735 299.2726,154.089 298.8166,153.5135 298.3628,152.9472 297.9115,152.39 297.4626,151.8418 297.0163,151.3026 296.5727,150.7723 296.1318,150.2509 297.0386,147.7834 297.0386,147.7834 298.4597,145.5719 299.1415,145.609 299.8321,145.643 300.5314,145.6737 301.2394,145.7011 301.9561,145.725 302.6814,145.7453 303.4155,145.762 304.1582,145.7749 304.9095,145.7841 305.6694,145.7893 306.4379,145.7905 307.2149,145.7876 308.0005,145.7806 308.7947,145.7692 309.5973,145.7535 310.4084,145.7333 311.2279,145.7086 312.0558,145.6793 312.8922,145.6452 313.7369,145.6063 314.5899,145.5625 315.4513,145.5137 316.3209,145.4598 317.1988,145.4007 318.0849,145.3364 318.9792,145.2667 319.8817,145.1916 320.7923,145.111 321.7109,145.0247 322.6377,144.9328 323.2604,144.6954 325.1991,140.2839 324.9529,139.6646 324.3939,138.9198 323.8362,138.1847 323.2798,137.4594 322.7248,136.7438 322.1714,136.0378 321.6195,135.3416 321.0694,134.6549 320.521,133.9778 319.9744,133.3103 319.4298,132.6523 318.8872,132.0037 318.3467,131.3645 317.8085,130.7348 317.2725,130.1143 316.7388,129.5032 316.2076,128.9013 315.6789,128.3086 315.1529,127.7251 314.6295,127.1508 314.1089,126.5855 313.5912,126.0292 313.0764,125.4819 312.5646,124.9436 312.0559,124.4141 311.5504,123.8935 311.0481,123.3817 310.5492,122.8786 310.0537,122.3842 309.5616,121.8985 309.0732,121.4214 309.7413,118.8789 309.7413,118.8789 310.9458,116.5423 311.628,116.5145 312.3187,116.4827 313.0177,116.4468 313.7251,116.4067 314.4408,116.3624 315.1648,116.3136 315.8971,116.2605 316.6377,116.2028 317.3865,116.1405 318.1434,116.0734 318.9086,116.0016 319.6818,115.9249 320.4632,115.8432 321.2527,115.7564 322.0501,115.6644 322.8556,115.5673 323.6691,115.4648 324.4905,115.3568 325.3198,115.2434 326.157,115.1244 327.002,114.9997 327.8549,114.8692 328.7154,114.7329 329.5837,114.5907 330.4597,114.4424 331.3433,114.2881 332.2346,114.1275 333.1334,113.9607 334.0397,113.7875 334.9535,113.6079 335.5508,113.3123 337.0614,108.7366 336.7574,108.1435 336.1302,107.4551 335.5051,106.7764 334.8823,106.1072 334.2618,105.4476 333.6438,104.7975 333.0282,104.1569 332.4153,103.5256 331.805,102.9037 331.1975,102.2912 330.5928,101.6879 329.991,101.0938 329.3922,100.5089 328.7965,99.9332 328.204,99.3665 327.6147,98.8089 327.0287,98.2602 326.446,97.7205 325.8669,97.1896 325.2913,96.6676 324.7193,96.1543 324.1511,95.6498 323.5866,95.1539 323.0259,94.6666 322.4692,94.1879 321.9165,93.7177 321.3678,93.256 320.8233,92.8026 320.2831,92.3576 319.7471,91.9209 319.2155,91.4923 319.6389,88.8979 319.6389,88.8979 320.6158,86.4573 321.2923,86.3648 321.9769,86.2675 322.6693,86.1653 323.3697,86.0581 324.078,85.946 324.7941,85.8286 325.518,85.7061 326.2497,85.5783 326.9892,85.4451 327.7363,85.3064 328.4912,85.1621 329.2537,85.0123 330.0237,84.8566 330.8013,84.6952 331.5865,84.5279 332.3791,84.3546 333.1791,84.1752 333.9866,83.9897 334.8013,83.798 335.6234,83.5999 336.4528,83.3954 337.2893,83.1845 338.133,82.967 338.9839,82.7429 339.8418,82.512 340.7068,82.2744 341.5787,82.0298 342.4576,81.7783 343.3433,81.5198 344.2359,81.2541 344.8024,80.9031 345.8712,76.2045 345.5122,75.643 344.8224,75.0174 344.1357,74.4011 343.4521,73.7942 342.7717,73.1965 342.0947,72.6081 341.421,72.0289 340.7508,71.4588 340.0842,70.8977 339.4212,70.3457 338.7619,69.8026 338.1064,69.2684 337.4547,68.7431 336.807,68.2266 336.1632,67.7188 335.5236,67.2197 334.8881,66.7292 334.2568,66.2473 333.6298,65.7739 333.0072,65.3089 332.389,64.8524 331.7754,64.4041 331.1663,63.9642 330.5619,63.5324 329.9622,63.1088 329.3672,62.6933 328.7772,62.2858 328.1921,61.8862 327.612,61.4946 327.0369,61.1107 326.467,60.7347 326.6419,58.1117 326.6419,58.1117 327.3823,55.5893 328.047,55.4329 328.7192,55.271 329.3988,55.1034 330.0858,54.9302 330.7802,54.7512 331.4819,54.5664 332.1909,54.3756 332.9072,54.1788 333.6306,53.9759 334.3612,53.7668 335.0989,53.5515 335.8437,53.3298 336.5955,53.1017 337.3542,52.867 338.1199,52.6258 338.8925,52.378 339.6718,52.1234 340.458,51.862 341.2508,51.5936 342.0504,51.3183 342.8565,51.036 343.6692,50.7465 344.4885,50.4498 345.3142,50.1458 346.1463,49.8344 346.9847,49.5156 347.8294,49.1893 348.6804,48.8554 349.5376,48.5138 350.4008,48.1645 350.9315,47.7612 351.5488,42.9823 351.1381,42.4574 350.3919,41.9002 349.6497,41.352 348.9115,40.8128 348.1774,40.2826 347.4475,39.7612 346.7218,39.2486 346.0005,38.7448 345.2835,38.2496 344.5711,37.7631 343.8631,37.2851 343.1598,36.8157 342.4611,36.3547 341.7672,35.9021 341.0781,35.4578 340.3939,35.0218 339.7147,34.5939 339.0405,34.1742 338.3713,33.7625 337.7073,33.3589 337.0485,32.9631 336.3951,32.5753 335.7469,32.1952 335.1042,31.8228 334.4669,31.4582 333.8352,31.1011 333.2091,30.7515 332.5887,30.4094 331.9739,30.0746 331.365,29.7472 330.7619,29.427 330.6867,26.7993 330.6867,26.7993 331.184,24.218 331.8308,23.9991 332.4845,23.774 333.1451,23.5426 333.8126,23.3048 334.4868,23.0606 335.1678,22.8099 335.8555,22.5526 336.5498,22.2886 337.2506,22.0179 337.9581,21.7403 338.672,21.4558 339.3923,21.1643 340.119,20.8658 340.852,20.5601 341.5913,20.2472 342.3368,19.927 343.0884,19.5995 343.8461,19.2645 344.6099,18.9221 345.3797,18.572 346.1553,18.2143 346.9368,17.8488 347.7242,17.4756 348.5172,17.0945 349.3159,16.7054 350.1203,16.3084 350.9302,15.9032 351.7456,15.49 352.5664,15.0684 353.3925,14.6386 353.8824,14.1868 354.0427,9.3708 353.5839,8.8874 352.7881,8.4036 351.9972,7.9285 351.2111,7.4619 350.4299,7.0038 349.6537,6.5542 348.8826,6.1129 348.1167,5.6799 347.3559,5.2551 346.6004,4.8385 345.8503,4.4301 345.1055,4.0296 344.3662,3.6371 343.6324,3.2525 342.9042,2.8757 342.1816,2.5067 341.4648,2.1453 340.7537,1.7916 340.0485,1.4454 339.3491,1.1067 338.6557,0.7754 337.9683,0.4514 337.287,0.1346 336.6118,-0.1749 335.9427,-0.4774 335.2799,-0.7728 334.6234,-1.0613 333.9733,-1.3429 333.3295,-1.6177 332.6922,-1.8858 332.0614,-2.1472 331.7367,-4.7558 "/><g class="guides"><polyline fill="none" stroke="#444" stroke-width="0.5" stroke-miterlimit="10" points="10,0 -10,0"/><polyline fill="none" stroke="#444" stroke-width="0.5" stroke-miterlimit="10" points="0,10 0,-10"/></g><circle fill="#c00" class="firstmarker" stroke="none" stroke-miterlimit="10" cx="343.0909" cy="-21.2766" r="4.0885"/><g class="geartext"><g class="text"><polyline fill="none" stroke="#444" stroke-width="0.5" stroke-linecap="square" stroke-miterlimit="1"  points="318.46 -61.13 318.31 -61.87 318.17 -62.6 318.02 -63.34 317.88 -64.08 "/><polyline fill="none" stroke="#444" stroke-width="0.5" stroke-linecap="square" stroke-miterlimit="1"  points="316.7 -62.31 319.64 -62.89 "/><polyline fill="none" stroke="#444" stroke-width="0.5" stroke-linecap="square" stroke-miterlimit="1"  points="319.93 -61.41 319.05 -62.01 318.17 -62.6 317.29 -63.19 316.41 -63.78 "/><polyline fill="none" stroke="#444" stroke-width="0.5" stroke-linecap="square" stroke-miterlimit="1"  points="316.98 -60.85 317.58 -61.73 318.17 -62.6 318.76 -63.49 319.35 -64.37 "/><polyline fill="none" stroke="#444" stroke-width="0.5" stroke-linecap="square" stroke-miterlimit="1"  points="320.21 -59.93 321.09 -59.33 316.66 -58.51 "/><polyline fill="none" stroke="#444" stroke-width="0.5" stroke-linecap="square" stroke-miterlimit="1"  points="316.79 -57.78 316.66 -58.51 316.52 -59.24 "/><polyline fill="none" stroke="#444" stroke-width="0.5" stroke-linecap="square" stroke-miterlimit="1"  points="322.61 -50.4 318.16 -49.7 319.16 -50.61 320.15 -51.53 321.14 -52.45 322.13 -53.38 317.69 -52.64 "/><polyline fill="none" stroke="#444" stroke-width="0.5" stroke-linecap="square" stroke-miterlimit="1"  points="321.79 -45.7 321.68 -46.45 321.58 -47.19 321.47 -47.94 321.35 -48.68 "/><polyline fill="none" stroke="#444" stroke-width="0.5" stroke-linecap="square" stroke-miterlimit="1"  points="320.31 -45.49 320.2 -46.23 320.09 -46.97 319.98 -47.71 319.87 -48.45 "/><polyline fill="none" stroke="#444" stroke-width="0.5" stroke-linecap="square" stroke-miterlimit="1"  points="321.26 -44.11 321.36 -43.37 321.46 -42.63 321.55 -41.88 320.91 -41.04 320.16 -40.95 319.32 -41.59 319.23 -42.33 319.13 -43.07 319.77 -43.91 322 -44.21 322.84 -43.57 323.69 -42.92 323.79 -42.17 "/><polyline fill="none" stroke="#444" stroke-width="0.5" stroke-linecap="square" stroke-miterlimit="1"  points="321.84 -39.65 321.93 -38.91 322.02 -38.16 322.1 -37.42 321.45 -36.59 320.7 -36.5 319.87 -37.16 319.78 -37.9 319.69 -38.64 320.35 -39.47 322.58 -39.74 323.42 -39.09 324.25 -38.43 324.34 -37.68 "/><polyline fill="none" stroke="#444" stroke-width="0.5" stroke-linecap="square" stroke-miterlimit="1"  points="322.74 -31.45 322.81 -30.7 322.88 -29.96 322.95 -29.21 323.77 -28.53 324.51 -28.59 325.19 -29.41 325.12 -30.17 325.05 -30.92 324.98 -31.67 320.5 -31.23 "/><polyline fill="none" stroke="#444" stroke-width="0.5" stroke-linecap="square" stroke-miterlimit="1"  points="320.91 -26.78 323.89 -27.03 "/><polyline fill="none" stroke="#444" stroke-width="0.5" stroke-linecap="square" stroke-miterlimit="1"  points="324.64 -27.09 325.39 -27.16 "/><polyline fill="none" stroke="#444" stroke-width="0.5" stroke-linecap="square" stroke-miterlimit="1"  points="321.99 -22.38 321.19 -23.07 321.89 -23.87 325.63 -24.14 "/><polyline fill="none" stroke="#444" stroke-width="0.5" stroke-linecap="square" stroke-miterlimit="1"  points="324.24 -22.53 324.19 -23.28 324.13 -24.03 324.07 -24.78 324.02 -25.53 "/><polyline fill="none" stroke="#444" stroke-width="0.5" stroke-linecap="square" stroke-miterlimit="1"  points="321.52 -17.87 321.48 -18.61 321.44 -19.35 321.39 -20.1 322.09 -20.89 323.59 -20.99 324.39 -20.28 324.43 -19.53 324.48 -18.78 324.52 -18.03 "/><polyline fill="none" stroke="#444" stroke-width="0.5" stroke-linecap="square" stroke-miterlimit="1"  points="323.1 -16.45 323.89 -15.74 324.67 -15.03 324.71 -14.28 323.99 -13.5 321.74 -13.4 "/><polyline fill="none" stroke="#444" stroke-width="0.5" stroke-linecap="square" stroke-miterlimit="1"  points="321.6 -16.38 326.1 -16.61 "/><polyline fill="none" stroke="#444" stroke-width="0.5" stroke-linecap="square" stroke-miterlimit="1"  points="321.92 -8.19 321.93 -7.45 321.95 -6.7 321.97 -5.96 322.73 -5.23 325.73 -5.27 326.46 -6.04 326.45 -6.8 326.43 -7.55 326.42 -8.31 "/><polyline fill="none" stroke="#444" stroke-width="0.5" stroke-linecap="square" stroke-miterlimit="1"  points="326.43 -7.55 321.93 -7.45 "/><polyline fill="none" stroke="#444" stroke-width="0.5" stroke-linecap="square" stroke-miterlimit="1"  points="325.02 -0.75 325.02 -1.5 325.01 -2.26 325.01 -3.01 325 -3.76 "/><polyline fill="none" stroke="#444" stroke-width="0.5" stroke-linecap="square" stroke-miterlimit="1"  points="323.52 -0.75 323.52 -1.5 323.51 -2.24 323.51 -2.99 323.5 -3.74 "/><polyline fill="none" stroke="#444" stroke-width="0.5" stroke-linecap="square" stroke-miterlimit="1"  points="322 3.72 322.01 2.98 322.01 2.23 322.02 1.49 322.02 0.74 323.52 0.75 324.27 1.5 324.26 2.25 324.26 3 325 3.76 325.75 3.77 326.51 3.02 326.51 2.27 326.52 1.51 325.77 0.75 "/><polyline fill="none" stroke="#444" stroke-width="0.5" stroke-linecap="square" stroke-miterlimit="1"  points="326.48 5.29 326.46 6.04 326.45 6.8 326.43 7.55 326.42 8.31 324.18 7.5 321.95 6.7 "/><polyline fill="none" stroke="#444" stroke-width="0.5" stroke-linecap="square" stroke-miterlimit="1"  points="322.62 9.7 321.88 9.68 "/><polyline fill="none" stroke="#444" stroke-width="0.5" stroke-linecap="square" stroke-miterlimit="1"  points="326.21 14.34 326.24 13.59 326.27 12.84 326.3 12.08 326.32 11.33 324.83 11.27 324.8 12.03 324.77 12.78 324.74 13.53 323.96 14.25 322.46 14.18 321.74 13.4 321.77 12.66 321.8 11.91 322.58 11.2 "/><polyline fill="none" stroke="#444" stroke-width="0.5" stroke-linecap="square" stroke-miterlimit="1"  points="323.68 19.49 323.64 20.24 323.59 20.99 323.54 21.73 324.24 22.53 324.99 22.59 325.79 21.88 325.84 21.13 325.88 20.38 325.93 19.62 321.44 19.35 "/><polyline fill="none" stroke="#444" stroke-width="0.5" stroke-linecap="square" stroke-miterlimit="1"  points="323.89 27.03 323.96 26.28 324.02 25.53 324.07 24.78 324.13 24.03 "/><polyline fill="none" stroke="#444" stroke-width="0.5" stroke-linecap="square" stroke-miterlimit="1"  points="322.4 26.91 322.46 26.16 322.52 25.41 322.58 24.67 322.64 23.92 "/><polyline fill="none" stroke="#444" stroke-width="0.5" stroke-linecap="square" stroke-miterlimit="1"  points="320.5 31.23 320.57 30.49 320.64 29.75 320.71 29.01 320.78 28.27 322.27 28.4 322.95 29.21 322.88 29.96 322.81 30.7 323.49 31.52 324.23 31.6 325.05 30.92 325.12 30.17 325.19 29.41 324.51 28.59 "/><polyline fill="none" stroke="#444" stroke-width="0.5" stroke-linecap="square" stroke-miterlimit="1"  points="321.1 32.79 320.35 32.71 "/><polyline fill="none" stroke="#444" stroke-width="0.5" stroke-linecap="square" stroke-miterlimit="1"  points="321.36 37.33 321.45 36.59 321.53 35.84 321.61 35.1 321.69 34.36 322.61 35.21 323.52 36.06 324.43 36.93 319.96 36.42 "/><polyline fill="none" stroke="#444" stroke-width="0.5" stroke-linecap="square" stroke-miterlimit="1"  points="321.46 42.63 321.36 43.37 321.26 44.11 321.15 44.86 321.79 45.7 322.53 45.81 323.38 45.17 323.49 44.42 323.59 43.67 323.69 42.92 319.23 42.33 "/><polyline fill="none" stroke="#444" stroke-width="0.5" stroke-linecap="square" stroke-miterlimit="1"  points="318.61 46.76 320.09 46.97 321.47 47.94 322.84 48.9 321.24 49.42 319.64 49.93 318.16 49.7 "/><polyline fill="none" stroke="#444" stroke-width="0.5" stroke-linecap="square" stroke-miterlimit="1"  points="320.09 46.97 319.98 47.71 319.87 48.45 319.76 49.19 319.64 49.93 "/><polyline fill="none" stroke="#444" stroke-width="0.5" stroke-linecap="square" stroke-miterlimit="1"  points="320.4 54.62 320.52 53.88 320.65 53.13 320.77 52.39 320.89 51.65 "/><polyline fill="none" stroke="#444" stroke-width="0.5" stroke-linecap="square" stroke-miterlimit="1"  points="318.92 54.36 319.05 53.63 319.17 52.89 319.29 52.15 319.41 51.41 "/><polyline fill="none" stroke="#444" stroke-width="0.5" stroke-linecap="square" stroke-miterlimit="1"  points="316.66 58.51 316.79 57.78 316.93 57.05 317.06 56.31 317.19 55.58 318.67 55.84 319.27 56.71 319.14 57.45 319.01 58.18 319.61 59.06 320.35 59.19 321.22 58.59 321.36 57.84 321.49 57.1 320.88 56.23 "/><polyline fill="none" stroke="#444" stroke-width="0.5" stroke-linecap="square" stroke-miterlimit="1"  points="320.81 60.81 320.67 61.56 320.52 62.3 320.38 63.04 320.23 63.78 318.17 62.6 316.11 61.44 "/></g></g><g class="guides gearguides" opacity="0.2"><circle class="pitch" fill="none" stroke="#f00" stroke-miterlimit="10" cx="0" cy="0" r="343.75"/><circle class="outer" fill="none" stroke="#ccc" stroke-miterlimit="10" stroke-dasharray="2,2" cx="0" cy="0" r="354.17"/><circle class="base" fill="none" stroke="#00f" stroke-miterlimit="10" stroke-dasharray="2,2" cx="0" cy="0" r="306.28"/></g></svg>